<?xml version="1.0" standalone="no"?>
<!DOCTYPE svg PUBLIC "-//W3C//DTD SVG 20010904//EN"
 "http://www.w3.org/TR/2001/REC-SVG-20010904/DTD/svg10.dtd">
<svg version="1.0" xmlns="http://www.w3.org/2000/svg"
 width="5332.000000pt" height="3770.000000pt" viewBox="0 0 5332.000000 3770.000000"
 preserveAspectRatio="xMidYMid meet">

<g transform="translate(0.000000,3770.000000) scale(0.100000,-0.100000)"
fill="#000000" stroke="none">
<path d="M31170 32743 c-55 -40 -258 -135 -460 -216 -102 -41 -732 -302 -1400
-579 -668 -278 -1237 -511 -1265 -519 -138 -38 -314 2 -412 94 -32 30 -68 32
-61 2 2 -8 166 -169 364 -359 328 -313 363 -343 377 -329 14 15 12 20 -22 60
-53 59 -67 117 -46 188 26 90 61 113 409 264 l306 133 400 -382 c220 -210 400
-387 400 -394 0 -19 -236 -603 -260 -640 -27 -45 -63 -71 -119 -86 -61 -16
-109 -5 -170 41 -50 38 -71 42 -71 14 0 -7 233 -235 518 -507 634 -603 568
-544 587 -528 13 11 9 19 -29 61 -52 57 -79 110 -101 194 -18 71 -19 107 -4
194 7 36 263 791 571 1679 604 1747 586 1687 488 1615z m-860 -680 c-1 -22
-460 -1138 -469 -1138 -17 0 -683 637 -674 645 9 9 1124 499 1136 500 4 0 7
-3 7 -7z"/>
<path d="M24640 32450 c-56 -35 -184 -165 -905 -920 -55 -57 -102 -107 -105
-110 -3 -3 -100 -104 -215 -225 -115 -121 -250 -262 -299 -314 -50 -51 -102
-105 -116 -120 -14 -15 -68 -72 -120 -127 -52 -54 -138 -144 -190 -199 -52
-56 -185 -195 -295 -310 -110 -116 -238 -250 -285 -300 -47 -49 -90 -94 -96
-100 -6 -5 -48 -50 -94 -100 -46 -49 -163 -173 -260 -275 -96 -101 -213 -225
-260 -274 -47 -50 -126 -133 -177 -186 -50 -52 -101 -106 -112 -119 -12 -13
-56 -61 -99 -105 -42 -45 -151 -160 -242 -256 -150 -159 -468 -494 -660 -695
-42 -44 -117 -123 -166 -175 -49 -52 -138 -146 -199 -209 -60 -63 -117 -122
-125 -131 -8 -9 -49 -52 -90 -96 -41 -43 -149 -158 -240 -254 -91 -96 -206
-217 -255 -270 -50 -52 -135 -142 -190 -200 -142 -150 -293 -309 -410 -430
-56 -58 -198 -206 -315 -330 -118 -124 -217 -227 -220 -230 -34 -34 -181 -196
-283 -314 -10 -12 -53 -57 -95 -101 -43 -45 -149 -157 -237 -250 -259 -275
-320 -339 -325 -345 -3 -3 -145 -153 -315 -335 -170 -181 -359 -382 -420 -445
-167 -173 -301 -315 -390 -414 -121 -135 -337 -369 -705 -761 -42 -44 -114
-121 -160 -170 -147 -156 -421 -446 -520 -550 -90 -94 -209 -220 -510 -545
-69 -74 -147 -159 -175 -190 -27 -30 -57 -62 -65 -70 -9 -8 -83 -87 -165 -175
-82 -88 -180 -193 -219 -234 -39 -40 -76 -78 -81 -85 -21 -22 -330 -353 -404
-431 -143 -150 -236 -249 -246 -261 -5 -6 -75 -80 -155 -165 -356 -378 -367
-390 -387 -426 -17 -32 -17 -34 1 -67 10 -18 41 -55 68 -82 28 -27 164 -162
302 -299 138 -138 334 -331 436 -430 102 -99 273 -266 380 -370 215 -209 744
-722 995 -965 263 -254 441 -427 610 -591 776 -752 834 -809 1435 -1389 162
-157 349 -337 415 -401 66 -64 141 -136 166 -160 25 -24 157 -152 294 -284
136 -132 251 -243 256 -246 5 -3 82 -77 172 -165 89 -87 275 -267 412 -399
138 -132 311 -298 385 -370 203 -196 544 -524 810 -780 69 -66 179 -172 245
-236 66 -63 176 -169 245 -235 69 -66 185 -179 259 -250 73 -71 139 -133 145
-139 6 -5 65 -62 131 -125 66 -63 235 -225 375 -360 345 -331 484 -465 620
-595 140 -134 541 -518 705 -675 66 -64 179 -172 250 -240 72 -68 175 -168
230 -220 55 -53 152 -146 215 -206 63 -61 176 -169 250 -240 74 -71 182 -174
240 -230 58 -55 157 -150 220 -210 63 -61 164 -158 225 -215 60 -57 164 -156
230 -219 120 -115 335 -321 345 -330 18 -17 224 -213 325 -310 138 -131 307
-293 445 -424 52 -50 147 -140 210 -201 64 -60 158 -150 210 -199 52 -50 142
-135 200 -190 127 -121 388 -368 485 -457 148 -137 161 -152 188 -222 15 -37
27 -74 27 -82 0 -8 4 -15 8 -15 5 0 15 -11 22 -25 8 -14 29 -35 48 -47 28 -17
44 -20 89 -15 31 3 61 11 66 16 6 6 18 11 27 11 8 0 179 166 380 368 375 377
455 459 885 907 339 353 457 475 620 643 76 78 141 146 144 151 5 8 189 198
666 691 82 85 155 160 160 166 6 6 62 65 124 130 164 170 337 350 480 499 69
72 181 189 250 260 222 231 332 346 551 575 118 123 274 285 345 360 148 152
345 359 360 376 6 6 60 63 120 125 61 63 198 206 305 319 107 112 245 256 305
319 61 63 121 127 135 141 14 15 72 76 130 136 58 60 193 200 300 312 142 149
199 202 214 200 16 -2 106 -116 106 -135 0 -2 9 -17 20 -31 24 -32 150 -222
150 -227 0 -4 63 -98 90 -133 11 -15 40 -53 65 -84 25 -32 45 -61 45 -65 0 -5
21 -30 45 -56 25 -27 45 -52 45 -57 0 -4 27 -38 60 -74 33 -37 60 -70 60 -75
0 -5 29 -41 65 -81 36 -40 65 -77 65 -82 0 -5 26 -37 58 -71 32 -34 79 -89
104 -122 25 -33 65 -78 88 -100 23 -22 79 -83 125 -135 100 -116 166 -182 231
-235 27 -22 123 -112 214 -202 91 -89 185 -176 210 -194 25 -17 89 -75 143
-128 54 -53 113 -105 131 -116 18 -11 64 -50 102 -87 38 -37 89 -81 114 -99
25 -18 61 -49 81 -70 20 -20 54 -48 75 -62 22 -13 57 -41 78 -62 22 -20 62
-54 90 -75 28 -21 73 -59 101 -84 27 -25 54 -46 59 -46 4 0 35 -25 68 -55 32
-30 64 -55 70 -55 6 0 33 -20 59 -45 26 -25 54 -45 62 -45 7 0 26 -14 42 -30
16 -17 34 -30 40 -30 7 0 33 -18 58 -40 25 -22 52 -40 61 -40 8 0 19 -6 23
-14 8 -14 57 -46 108 -70 17 -8 39 -23 51 -34 11 -11 29 -22 40 -26 10 -3 31
-17 46 -31 15 -14 34 -25 41 -25 8 0 20 -7 27 -15 7 -8 20 -15 29 -15 9 0 22
-5 28 -11 11 -11 59 -39 111 -64 17 -8 32 -20 32 -25 0 -6 9 -10 19 -10 11 0
26 -6 33 -13 7 -8 26 -17 41 -21 15 -3 27 -11 27 -16 0 -6 8 -10 19 -10 10 0
24 -7 31 -15 7 -8 23 -15 36 -15 12 0 71 -24 131 -54 59 -29 128 -61 153 -71
25 -9 72 -30 105 -46 33 -16 70 -29 81 -29 12 0 27 -7 34 -15 7 -8 21 -15 31
-15 10 0 20 -4 23 -9 3 -4 19 -11 34 -14 16 -3 53 -17 83 -30 30 -14 82 -35
117 -47 34 -12 62 -26 62 -31 0 -5 12 -9 28 -9 15 0 36 -6 47 -13 11 -7 47
-22 80 -32 33 -11 64 -23 70 -27 5 -4 15 -8 23 -8 8 0 28 -6 45 -14 35 -15
188 -70 225 -81 12 -3 22 -11 22 -16 0 -5 15 -9 34 -9 18 0 39 -6 45 -14 7 -8
31 -16 54 -19 23 -3 65 -12 92 -21 122 -37 275 -78 330 -88 33 -5 65 -13 70
-18 6 -4 40 -11 77 -15 37 -3 70 -11 73 -16 4 -5 27 -9 53 -9 26 0 63 -5 82
-11 19 -6 78 -13 130 -15 52 -2 111 -9 130 -14 53 -15 595 -32 1035 -33 375 0
615 11 679 33 16 6 48 10 72 10 24 0 66 5 94 11 l50 11 -2 181 -3 182 -170 6
c-93 4 -368 12 -610 18 -242 6 -450 16 -463 21 -13 6 -76 10 -140 11 -64 0
-144 5 -177 10 -33 6 -105 14 -160 19 -158 14 -291 36 -520 84 -38 8 -99 20
-135 26 -36 7 -69 16 -74 21 -6 5 -26 9 -45 9 -20 0 -49 7 -65 15 -15 8 -41
15 -56 15 -25 0 -78 13 -170 42 -19 7 -53 15 -75 19 -75 15 -150 34 -160 41
-6 3 -27 9 -48 13 -20 4 -40 11 -43 16 -3 5 -13 9 -22 9 -9 0 -30 7 -46 15
-15 8 -38 15 -50 15 -12 0 -31 7 -42 15 -10 8 -31 15 -45 15 -14 0 -34 7 -45
15 -10 8 -31 15 -46 15 -15 0 -33 7 -42 15 -8 8 -21 15 -30 15 -15 0 -34 8
-146 58 -30 13 -64 28 -75 32 -32 12 -179 81 -195 91 -8 5 -22 12 -30 15 -8 3
-22 10 -30 15 -8 5 -22 12 -30 15 -8 3 -22 10 -30 15 -8 5 -22 12 -30 15 -8 3
-28 13 -45 22 -16 8 -39 20 -50 25 -11 6 -27 14 -35 19 -8 4 -22 11 -30 14 -8
3 -22 10 -30 15 -8 5 -22 12 -30 15 -19 8 -153 72 -280 133 -52 25 -99 52
-103 59 -4 6 -16 12 -26 12 -10 0 -24 7 -31 15 -7 8 -18 15 -26 15 -7 0 -42
20 -78 45 -37 25 -70 45 -75 45 -4 0 -20 11 -35 25 -15 14 -32 25 -39 25 -7 0
-26 12 -42 28 -17 15 -64 50 -105 77 -72 48 -135 95 -230 170 -83 66 -135 105
-185 139 -27 18 -59 44 -70 56 -11 12 -36 33 -55 45 -20 12 -58 43 -85 69 -28
25 -54 46 -60 46 -5 0 -34 23 -63 50 -28 27 -69 61 -90 74 -21 13 -60 46 -87
73 -28 27 -70 65 -95 84 -25 18 -90 77 -146 129 -56 52 -134 124 -175 160 -41
35 -112 107 -159 159 -47 52 -133 145 -191 205 -58 61 -126 138 -151 171 -25
34 -54 67 -63 75 -16 13 -73 85 -157 198 -15 21 -42 54 -60 74 -17 20 -36 45
-42 56 -6 11 -27 38 -47 59 -20 22 -41 49 -47 60 -7 11 -34 47 -62 79 -27 33
-50 64 -50 70 0 6 -9 19 -21 30 -11 10 -39 47 -61 81 -23 35 -44 63 -48 63 -4
0 -11 11 -14 24 -3 13 -17 34 -31 47 -13 13 -25 31 -25 39 0 8 -11 27 -25 42
-14 15 -25 32 -25 37 0 6 -12 25 -27 43 -16 18 -37 51 -48 73 -10 22 -31 56
-45 75 -14 19 -32 47 -40 63 -7 15 -32 48 -55 73 -23 24 -52 63 -66 85 -13 22
-34 53 -46 69 -13 15 -23 34 -23 41 0 8 -7 23 -15 33 -8 11 -15 26 -15 33 0 8
39 55 88 106 48 51 109 117 136 147 27 30 84 91 126 135 292 307 537 564 614
644 50 51 96 98 101 105 6 6 111 117 235 246 490 512 590 617 626 655 53 58
414 437 675 710 48 49 101 106 119 125 18 19 67 71 109 115 97 102 613 650
927 985 33 36 101 108 150 160 49 52 123 131 164 175 41 44 77 82 81 85 4 4
474 501 798 845 81 86 300 320 346 370 15 17 68 75 119 130 50 55 123 134 161
175 374 404 410 457 380 555 -22 75 -100 155 -250 255 -35 23 -105 88 -309
284 -104 99 -205 196 -225 215 -183 171 -329 308 -396 371 -44 41 -91 86 -105
100 -14 14 -57 54 -95 90 -39 36 -142 133 -229 215 -88 83 -164 155 -170 160
-57 52 -209 196 -286 270 -52 50 -171 162 -265 250 -233 218 -306 286 -490
460 -88 83 -227 214 -309 290 -83 77 -162 151 -176 165 -73 69 -295 277 -314
293 -11 10 -57 53 -101 95 -44 42 -114 108 -155 147 -78 72 -188 176 -338 317
-48 46 -122 115 -163 153 -67 63 -206 193 -459 430 -47 44 -121 114 -165 156
-44 41 -154 145 -245 229 -91 85 -201 188 -245 230 -87 83 -172 162 -495 465
-47 44 -148 139 -225 211 -77 72 -152 142 -166 155 -24 21 -76 70 -373 349
-45 41 -123 116 -176 165 -52 50 -169 160 -260 246 -91 85 -235 220 -320 299
-85 79 -189 176 -230 215 -41 39 -149 141 -240 226 -91 84 -192 179 -225 210
-33 31 -208 195 -390 365 -181 170 -337 316 -345 325 -8 8 -76 72 -150 140
-74 68 -178 165 -230 215 -52 50 -131 124 -175 165 -92 85 -204 190 -320 300
-44 42 -141 132 -215 200 -74 68 -171 158 -215 200 -89 84 -216 203 -315 294
-36 33 -108 101 -160 151 -52 50 -131 124 -175 165 -44 41 -120 112 -169 159
-50 47 -127 119 -171 160 -44 41 -121 113 -170 160 -110 104 -211 198 -380
355 -219 203 -429 399 -740 691 -88 83 -235 221 -327 307 -93 86 -176 165
-186 174 -49 47 -158 148 -267 248 -66 61 -122 112 -125 115 -3 3 -93 86 -200
185 -107 99 -204 189 -215 200 -51 52 -557 518 -615 567 -36 31 -83 63 -105
73 -22 10 -42 20 -45 21 -3 1 -26 -10 -50 -26z m320 -1065 c36 -8 86 -14 111
-15 25 0 59 -4 75 -10 16 -5 56 -14 89 -19 100 -16 222 -48 305 -81 30 -12 64
-25 75 -29 39 -13 201 -99 254 -135 29 -20 55 -36 58 -36 15 0 185 -141 276
-230 129 -126 298 -354 369 -500 49 -101 68 -145 68 -160 0 -8 6 -24 13 -35 8
-11 17 -35 20 -53 4 -18 18 -48 32 -66 14 -18 25 -39 25 -45 0 -7 6 -25 14
-39 25 -48 46 -100 46 -116 0 -8 4 -25 9 -38 5 -13 17 -59 26 -103 8 -44 22
-108 30 -142 8 -34 15 -88 15 -120 0 -37 6 -67 15 -79 8 -10 15 -39 15 -64 1
-103 9 -120 89 -200 65 -65 423 -406 456 -435 11 -10 107 -100 295 -280 58
-55 146 -138 196 -185 343 -325 461 -436 548 -520 55 -52 105 -99 111 -105 7
-5 94 -89 195 -185 101 -96 188 -180 194 -185 27 -25 441 -418 536 -509 134
-129 494 -472 536 -511 17 -16 74 -70 125 -120 52 -49 187 -178 299 -285 113
-107 254 -242 315 -300 238 -228 291 -279 325 -310 19 -18 76 -72 125 -119 50
-48 187 -179 305 -291 118 -112 258 -245 310 -295 52 -50 142 -136 200 -191
58 -56 161 -154 230 -220 68 -65 174 -166 235 -224 60 -57 166 -158 235 -225
69 -66 215 -205 325 -310 110 -104 254 -242 320 -306 119 -115 560 -535 581
-554 7 -5 61 -57 120 -115 60 -58 157 -150 214 -205 157 -149 332 -316 450
-429 58 -56 155 -148 215 -206 155 -147 290 -276 435 -415 69 -66 179 -172
245 -235 66 -63 174 -166 240 -230 280 -268 539 -516 555 -530 17 -15 377
-361 580 -557 58 -56 115 -110 126 -120 12 -10 124 -118 250 -239 262 -253
308 -295 387 -357 132 -102 143 -162 58 -294 -29 -45 -54 -70 -99 -97 -56 -34
-118 -93 -347 -335 -49 -53 -146 -154 -215 -226 -485 -503 -845 -875 -1156
-1195 -105 -107 -268 -276 -364 -375 -96 -99 -259 -265 -361 -370 -180 -184
-315 -324 -605 -625 -338 -351 -407 -423 -539 -560 -77 -80 -198 -206 -270
-280 -71 -74 -233 -243 -360 -375 -261 -273 -438 -456 -606 -629 l-116 -119
-22 22 c-11 11 -21 27 -21 35 0 7 -7 19 -15 26 -8 7 -15 20 -15 30 0 10 -7 23
-15 30 -8 7 -15 20 -15 30 0 10 -7 23 -15 30 -8 7 -15 21 -15 32 0 10 -7 21
-15 24 -8 4 -15 16 -15 29 0 13 -7 25 -15 29 -8 3 -15 14 -15 24 0 11 -7 25
-15 32 -8 7 -15 20 -15 30 0 9 -9 25 -20 35 -18 16 -48 73 -63 118 -4 9 -11
17 -17 17 -5 0 -10 10 -10 23 -1 12 -14 33 -30 47 -17 13 -30 34 -30 46 0 12
-7 24 -15 28 -8 3 -15 16 -15 30 0 13 -7 26 -15 30 -8 3 -15 14 -15 24 0 10
-11 29 -25 42 -14 13 -25 31 -25 41 0 10 -4 20 -9 23 -11 7 -51 88 -51 103 0
6 -7 13 -15 17 -8 3 -15 16 -15 28 -1 13 -14 34 -30 48 -17 13 -30 34 -30 46
0 12 -4 24 -8 26 -9 3 -72 129 -72 144 0 5 -14 22 -30 38 -17 16 -30 38 -30
48 0 10 -7 21 -15 24 -8 4 -15 16 -15 29 0 13 -7 25 -15 29 -8 3 -15 15 -15
26 0 12 -11 31 -25 44 -14 13 -25 30 -25 38 0 9 -7 21 -15 28 -8 7 -15 20 -15
29 0 9 -14 31 -30 50 -17 18 -30 39 -30 46 0 7 -7 18 -15 25 -8 7 -15 18 -15
26 0 7 -13 28 -30 46 -17 18 -30 39 -30 46 0 8 -18 41 -40 74 -22 33 -40 67
-40 74 0 8 -4 14 -9 14 -5 0 -20 20 -32 45 -12 25 -26 45 -31 45 -4 0 -8 6 -8
14 0 7 -9 24 -19 37 -21 27 -52 78 -76 126 -9 17 -25 39 -36 49 -10 9 -19 24
-19 32 0 8 -11 28 -26 46 -49 61 -114 154 -114 164 0 6 -6 15 -14 19 -7 4 -26
28 -41 53 -15 25 -43 61 -62 80 -19 19 -48 54 -66 77 -18 23 -39 45 -47 48 -8
3 -31 26 -50 52 -19 26 -65 77 -102 113 -64 63 -80 91 -59 105 6 3 13 26 17
50 3 25 10 48 15 51 5 3 9 31 9 63 0 35 6 65 15 77 21 28 22 326 0 344 -11 9
-15 35 -15 99 -1 60 -5 92 -15 105 -8 11 -15 31 -15 44 0 13 -7 30 -15 38 -10
10 -15 35 -15 74 0 32 -4 61 -9 64 -5 4 -12 24 -16 46 -4 22 -10 42 -15 45 -5
3 -11 23 -15 45 -4 22 -10 40 -15 40 -4 0 -10 12 -13 28 -7 39 -32 101 -45
114 -7 7 -12 26 -12 44 0 17 -7 37 -15 44 -8 7 -15 19 -15 27 0 17 -26 101
-47 150 -7 17 -13 45 -13 61 0 17 -4 33 -9 36 -4 3 -11 33 -15 66 -4 33 -11
60 -16 60 -6 0 -10 47 -10 110 0 89 -3 112 -15 116 -12 5 -15 30 -15 138 -1
99 -4 136 -15 150 -10 13 -15 45 -15 95 -1 47 -6 86 -15 101 -8 14 -14 49 -15
78 0 29 -4 60 -9 70 -6 9 -15 44 -21 77 -5 33 -17 92 -26 130 -8 39 -19 98
-24 132 -5 35 -14 72 -20 82 -5 11 -10 32 -10 48 -1 15 -7 39 -15 53 -8 14
-14 39 -15 55 0 17 -6 39 -13 50 -7 11 -21 45 -31 75 -39 121 -108 240 -181
314 -39 40 -87 80 -106 89 -19 10 -41 22 -49 26 -33 20 -89 41 -108 41 -12 0
-24 5 -27 10 -3 6 -32 10 -64 10 -35 0 -65 6 -77 15 -11 8 -42 15 -74 15 -30
0 -68 7 -84 15 -15 8 -50 15 -77 15 -39 0 -55 5 -82 30 -19 17 -42 30 -50 30
-9 0 -18 4 -21 9 -14 22 302 341 337 341 9 0 17 4 19 8 12 29 249 140 338 159
14 3 30 10 37 15 21 16 117 31 213 33 125 2 142 7 161 47 12 29 13 44 2 107
-7 41 -17 79 -23 85 -5 5 -10 20 -10 32 0 12 -7 38 -15 57 -8 20 -15 47 -15
60 0 53 -79 160 -142 193 -18 10 -31 25 -35 44 -3 17 -9 30 -12 30 -4 0 -16
19 -26 43 -10 23 -35 69 -54 102 -20 33 -54 95 -75 138 -35 72 -37 82 -31 136
7 62 -5 101 -46 144 -19 21 -99 151 -99 161 0 3 -13 34 -28 68 -46 102 -72
167 -110 278 -20 58 -46 128 -58 155 -12 28 -26 64 -30 80 -4 16 -13 40 -20
54 -8 14 -14 34 -14 43 0 9 -4 19 -9 23 -5 3 -19 36 -31 73 -13 37 -26 71 -31
76 -5 6 -9 16 -9 24 0 14 -21 67 -46 114 -8 14 -14 34 -14 43 0 9 -7 31 -16
48 -28 53 -31 61 -39 97 -4 19 -11 41 -16 50 -14 25 -69 164 -69 173 0 5 -7
24 -15 43 -8 19 -22 49 -30 68 -8 19 -15 43 -15 54 0 12 -4 23 -9 26 -4 3 -18
34 -31 68 -12 35 -26 68 -30 73 -5 6 -11 27 -15 48 -4 20 -11 40 -16 43 -5 3
-9 12 -9 21 0 16 -4 27 -74 185 -9 20 -16 38 -16 41 0 29 -188 399 -253 499
-32 48 -57 92 -57 97 0 6 -5 11 -10 11 -6 0 -14 8 -17 18 -4 9 -51 77 -105
149 -54 73 -98 137 -98 143 0 5 -4 10 -9 10 -5 0 -12 8 -15 18 -4 9 -19 31
-34 48 -15 17 -45 53 -67 80 -70 85 -249 254 -269 254 -5 0 -17 6 -25 14 -25
22 -112 66 -131 66 -9 0 -25 7 -36 15 -11 9 -42 14 -78 15 -71 0 -117 -25
-137 -73 -7 -17 -25 -47 -41 -65 -15 -18 -28 -39 -28 -47 0 -18 -56 -189 -75
-232 -8 -17 -15 -35 -15 -39 0 -12 -50 -145 -66 -176 -8 -14 -14 -38 -14 -51
0 -14 -4 -28 -10 -32 -5 -3 -19 -37 -31 -75 -13 -39 -27 -70 -31 -70 -4 0 -8
-10 -8 -22 0 -13 -14 -50 -30 -83 -16 -33 -30 -63 -30 -67 0 -9 -37 -90 -116
-255 -30 -61 -54 -114 -54 -116 0 -3 -25 -58 -56 -123 -40 -85 -58 -113 -65
-103 -13 22 -11 55 6 69 8 7 15 21 15 32 0 10 7 21 15 24 9 4 15 19 15 41 0
19 7 41 15 49 8 9 15 24 15 35 0 10 5 19 10 19 6 0 10 10 10 23 0 12 7 35 15
51 8 15 15 38 15 50 0 12 7 31 15 42 8 10 15 31 15 45 0 15 7 32 15 39 8 7 15
27 15 45 0 18 7 38 15 45 8 7 15 23 15 35 0 13 6 36 14 52 27 51 46 101 46
116 0 9 4 18 9 22 5 3 12 19 16 35 4 17 10 30 13 30 8 0 31 60 39 102 3 15 11
33 19 39 8 6 14 16 14 23 0 6 14 40 31 76 55 114 89 195 89 209 0 6 4 19 10
29 5 9 16 35 26 57 24 60 39 93 73 165 17 36 31 75 31 86 0 12 7 27 15 34 11
9 15 34 15 99 0 84 -1 87 -34 121 -48 50 -63 60 -84 60 -10 0 -27 7 -38 15
-10 8 -33 15 -50 15 -16 0 -39 7 -50 15 -10 8 -32 15 -49 15 -16 0 -41 7 -55
15 -14 8 -41 15 -60 15 -19 0 -46 7 -60 15 -14 8 -44 14 -68 15 -24 0 -56 7
-72 15 -28 14 -29 14 -59 -24 -17 -21 -31 -46 -31 -54 0 -8 -7 -20 -15 -27 -8
-7 -15 -26 -15 -43 0 -17 -6 -38 -13 -46 -8 -9 -22 -42 -31 -73 -10 -32 -22
-60 -27 -64 -5 -3 -9 -15 -9 -27 0 -12 -7 -35 -15 -51 -8 -15 -15 -38 -15 -50
0 -12 -7 -31 -15 -42 -8 -10 -15 -31 -15 -46 0 -15 -7 -33 -15 -42 -8 -8 -15
-21 -15 -28 0 -7 -7 -22 -15 -32 -8 -11 -15 -31 -15 -45 0 -14 -7 -35 -15 -45
-8 -11 -15 -31 -15 -45 0 -14 -7 -35 -15 -45 -8 -11 -15 -27 -15 -37 0 -9 -7
-30 -15 -45 -8 -16 -15 -37 -15 -47 0 -9 -4 -25 -9 -35 -5 -9 -19 -45 -31 -79
-13 -35 -26 -63 -31 -63 -5 0 -9 -15 -9 -34 0 -18 -7 -39 -15 -46 -8 -7 -15
-20 -15 -29 0 -9 -7 -25 -15 -35 -8 -11 -15 -27 -15 -36 0 -9 -6 -30 -14 -46
-7 -16 -22 -48 -32 -71 -10 -24 -21 -43 -26 -43 -4 0 -8 -6 -8 -12 0 -18 -44
-122 -52 -126 -5 -2 -8 -14 -8 -27 0 -12 -7 -28 -15 -35 -8 -7 -15 -21 -15
-31 0 -10 -4 -20 -9 -24 -5 -3 -13 -20 -17 -37 -3 -18 -10 -39 -15 -48 -25
-47 -39 -86 -39 -105 0 -13 -6 -28 -14 -34 -8 -7 -17 -27 -20 -45 -4 -19 -13
-39 -20 -45 -8 -7 -12 -20 -9 -30 3 -11 -4 -28 -16 -40 -12 -12 -21 -25 -21
-31 0 -5 -4 -10 -10 -10 -5 0 -10 4 -10 9 0 6 5 13 10 16 6 3 10 17 10 31 0
14 5 35 12 47 6 12 15 35 19 52 8 30 56 165 77 218 7 16 12 37 12 47 0 10 5
22 10 25 6 3 10 15 10 27 0 11 6 34 14 51 8 18 24 63 37 100 12 37 26 70 30
73 5 3 9 14 9 24 0 10 6 31 14 47 28 54 90 217 102 266 3 15 10 30 15 33 5 3
9 15 9 27 0 12 7 35 15 51 8 15 15 38 15 50 0 12 6 30 13 41 7 11 21 45 31 75
28 87 69 192 114 290 11 25 25 63 32 85 7 22 17 49 23 60 6 11 13 73 15 137 7
212 -46 314 -248 473 -41 33 -81 66 -90 75 -8 8 -36 31 -60 50 -25 19 -51 41
-59 48 -21 20 -114 87 -131 95 -8 4 -22 11 -30 16 -53 30 -82 41 -108 41 -16
0 -35 7 -42 15 -22 26 -71 13 -118 -32 -7 -7 -20 -13 -28 -13 -8 0 -14 -4 -14
-9 0 -5 -10 -13 -22 -16 -13 -4 -37 -18 -55 -31 -17 -13 -36 -24 -41 -24 -5 0
-17 -10 -28 -21 -10 -12 -42 -37 -69 -54 -28 -18 -57 -40 -64 -49 -8 -9 -28
-23 -46 -32 -18 -8 -68 -51 -111 -96 -101 -103 -178 -154 -208 -140 -11 6 -37
14 -56 18 -36 7 -43 10 -98 37 -19 10 -57 17 -89 17 -49 0 -93 16 -132 47 -12
9 103 73 130 73 9 0 19 7 23 15 3 9 18 15 39 15 19 0 40 7 47 15 7 8 21 15 31
15 11 0 19 4 19 9 0 5 13 14 28 20 15 6 41 23 56 36 16 14 34 25 40 25 31 0
252 218 313 308 21 31 41 59 46 60 4 2 7 12 7 22 0 10 5 22 11 25 5 4 14 17
20 28 5 12 13 29 18 37 5 8 12 22 15 30 4 8 20 38 36 65 17 28 35 61 41 75 6
13 14 27 18 30 10 7 85 151 117 225 7 17 20 46 28 67 9 20 16 43 16 51 0 9 4
18 9 21 5 3 12 23 16 43 4 21 10 43 14 48 6 10 23 62 55 178 38 134 38 507 0
538 -8 6 -14 25 -14 41 0 16 -7 36 -15 44 -8 9 -15 24 -15 35 0 10 -4 19 -9
19 -12 0 -23 47 -16 69 7 24 68 49 135 55 67 6 142 27 164 45 9 7 16 23 16 35
0 11 7 30 15 40 20 27 19 110 -2 144 -30 48 -56 72 -79 72 -32 0 -37 14 -14
43 25 31 27 120 5 174 -8 19 -15 64 -15 99 0 34 -5 75 -10 90 -6 14 -13 60
-17 101 -3 40 -10 76 -14 79 -5 3 -9 12 -9 21 0 9 -14 46 -31 82 -16 36 -36
80 -43 96 -24 54 -81 170 -89 180 -70 94 -216 235 -242 235 -3 0 -21 11 -39
25 -18 14 -39 25 -47 25 -8 0 -20 5 -27 12 -14 14 -76 38 -117 45 -16 3 -35 9
-40 14 -14 10 -84 28 -158 40 -33 5 -64 12 -70 16 -6 3 -47 10 -91 15 -45 5
-100 12 -124 15 -36 4 -47 1 -63 -16 -11 -12 -24 -21 -29 -21 -6 0 -24 -13
-40 -29 -23 -21 -48 -32 -98 -41 -43 -8 -76 -21 -92 -35 -14 -13 -45 -33 -70
-46 -53 -27 -118 -70 -180 -120 -50 -41 -123 -79 -220 -117 -73 -29 -162 -32
-208 -7 -67 36 -92 68 -103 130 -6 33 -13 70 -15 83 -5 23 -37 31 -49 12 -3
-5 -12 -10 -20 -10 -14 0 -115 -95 -115 -107 0 -4 -7 -14 -15 -23 -29 -32
-121 -208 -130 -250 -4 -16 -11 -32 -16 -35 -5 -4 -9 -18 -9 -33 0 -15 -6 -39
-14 -53 -7 -14 -16 -47 -20 -72 -4 -26 -11 -49 -17 -52 -12 -8 -12 -272 0
-280 5 -3 13 -19 16 -36 16 -72 114 -181 200 -223 82 -40 133 -46 500 -56 193
-6 510 -15 705 -21 419 -12 585 -12 677 1 144 20 209 30 248 39 174 43 230 50
269 35 19 -7 11 -24 -11 -24 -18 0 -61 -18 -178 -76 -49 -25 -95 -44 -101 -44
-6 0 -17 -7 -24 -15 -7 -8 -20 -15 -30 -15 -10 0 -23 -7 -30 -15 -8 -10 -30
-15 -61 -15 -27 0 -49 -4 -49 -9 0 -8 -130 -26 -265 -37 -479 -38 -692 -43
-870 -19 -60 8 -149 15 -197 15 -48 0 -113 7 -145 15 -31 8 -78 15 -105 15
-26 0 -50 5 -53 10 -3 6 -21 10 -38 10 -18 0 -45 7 -61 15 -15 8 -38 15 -50
15 -12 0 -30 6 -41 14 -11 7 -31 16 -45 19 -41 9 -100 33 -112 45 -7 7 -20 12
-30 12 -10 0 -18 4 -18 9 0 5 -23 24 -51 41 l-52 32 -21 -25 c-12 -14 -30 -27
-40 -29 -10 -2 -22 -10 -26 -18 -4 -8 -12 -26 -19 -39 -22 -41 -26 -161 -7
-205 9 -21 16 -46 16 -55 0 -9 7 -29 15 -45 8 -15 15 -36 15 -45 0 -10 7 -26
15 -37 8 -10 15 -26 15 -35 0 -9 7 -22 15 -29 8 -7 15 -20 15 -30 0 -10 7 -23
15 -30 8 -7 15 -20 15 -30 0 -10 7 -23 15 -30 8 -7 15 -21 15 -31 0 -11 4 -19
10 -19 5 0 13 -12 16 -27 4 -16 10 -32 14 -38 4 -5 11 -25 15 -42 3 -18 11
-33 16 -33 5 0 9 -10 9 -23 0 -13 7 -32 15 -43 8 -10 15 -29 15 -40 0 -12 7
-27 15 -34 8 -7 15 -27 15 -45 0 -18 7 -38 15 -45 8 -7 15 -27 15 -45 0 -18 7
-38 15 -45 8 -7 15 -25 15 -41 0 -16 4 -29 9 -29 5 0 13 -15 16 -32 4 -18 10
-37 14 -43 8 -14 31 -73 41 -110 14 -50 52 -155 76 -212 8 -17 14 -45 14 -61
0 -17 5 -34 10 -37 6 -3 10 -16 10 -28 0 -12 7 -35 15 -51 8 -15 15 -38 15
-50 0 -12 7 -31 15 -42 8 -10 15 -31 15 -45 0 -15 7 -32 15 -39 8 -7 15 -18
15 -25 0 -8 6 -26 14 -42 8 -15 21 -46 29 -68 22 -57 26 -67 40 -90 7 -11 25
-43 41 -70 16 -28 34 -55 40 -61 6 -6 20 -22 32 -35 12 -13 49 -50 83 -83 33
-32 61 -62 61 -67 0 -14 -3 -14 -78 24 -19 9 -38 17 -42 17 -11 0 -103 60
-111 73 -4 5 -25 21 -46 36 -45 29 -176 128 -210 158 -12 10 -38 28 -57 38
-20 11 -36 23 -36 27 0 5 -8 8 -19 8 -10 0 -24 7 -31 15 -7 8 -29 15 -49 15
-35 0 -38 -4 -111 -113 -41 -61 -77 -114 -80 -117 -3 -3 -34 -41 -70 -85 -84
-104 -90 -111 -141 -170 -90 -105 -132 -199 -100 -220 14 -8 71 -125 71 -145
0 -10 7 -23 15 -30 8 -7 15 -22 15 -34 0 -11 7 -30 15 -40 8 -11 15 -28 15
-38 0 -10 4 -26 10 -36 16 -29 50 -110 50 -120 0 -5 7 -23 15 -38 8 -16 15
-36 15 -44 0 -8 12 -37 25 -65 14 -27 25 -58 25 -67 0 -9 6 -29 14 -45 26 -50
46 -101 46 -115 0 -8 5 -19 11 -25 6 -6 14 -26 19 -44 5 -19 27 -86 50 -149
23 -63 53 -153 67 -200 14 -47 31 -101 38 -120 29 -82 37 -107 45 -135 7 -27
13 -45 40 -120 4 -11 15 -47 25 -80 9 -33 23 -75 31 -93 8 -18 14 -41 14 -52
0 -10 4 -21 9 -24 5 -3 12 -27 16 -53 4 -27 13 -72 21 -102 10 -40 11 -58 3
-68 -14 -16 -48 -17 -53 0 -6 19 -37 128 -47 162 -4 17 -11 49 -15 73 -4 23
-11 45 -15 48 -5 3 -9 15 -9 27 0 38 -46 169 -91 260 -16 31 -29 66 -29 76 0
10 -7 24 -15 31 -8 7 -15 21 -15 31 0 10 -4 21 -10 24 -5 3 -10 13 -10 22 0
15 -19 65 -46 116 -8 16 -14 35 -14 44 0 8 -6 27 -14 41 -8 15 -17 34 -20 42
-3 8 -10 22 -15 30 -5 8 -17 33 -26 55 -10 22 -24 53 -31 68 -8 16 -14 33 -14
39 0 6 -11 26 -25 44 -14 18 -25 40 -25 49 0 8 -7 18 -15 21 -8 4 -15 16 -15
29 0 13 -7 25 -15 29 -8 3 -15 16 -15 28 0 13 -7 32 -15 42 -8 11 -15 26 -15
34 0 8 -10 28 -22 44 -27 39 -118 219 -118 236 0 6 -4 12 -9 12 -5 0 -13 10
-16 23 -6 19 -20 53 -45 107 -20 43 -86 159 -105 185 -12 17 -24 38 -28 48 -3
9 -11 17 -17 17 -5 0 -10 6 -10 14 0 22 -89 109 -138 134 -50 26 -123 29 -166
7 -15 -8 -37 -15 -47 -15 -10 0 -33 -6 -51 -14 -32 -13 -84 -34 -158 -61 -58
-22 -64 -25 -80 -34 -8 -5 -26 -13 -40 -19 -125 -53 -143 -71 -142 -145 0 -40
8 -70 31 -113 16 -32 32 -66 35 -74 3 -8 10 -22 15 -30 29 -48 62 -130 56
-140 -4 -6 -22 1 -50 20 -71 49 -93 43 -320 -80 -33 -18 -67 -39 -76 -46 -8
-8 -19 -14 -22 -14 -4 0 -40 -24 -81 -54 -132 -98 -466 -451 -466 -493 0 -5
-10 -19 -23 -33 -20 -22 -87 -150 -87 -166 0 -3 -6 -20 -14 -37 -33 -73 -54
-124 -67 -162 -7 -22 -19 -49 -26 -60 -7 -11 -13 -29 -13 -41 0 -11 -11 -41
-23 -65 -13 -24 -27 -61 -31 -82 -4 -20 -11 -37 -16 -37 -6 0 -10 -13 -10 -28
0 -16 -7 -37 -15 -48 -8 -10 -15 -30 -15 -42 0 -13 -6 -36 -14 -50 -7 -15 -21
-54 -31 -87 -9 -33 -20 -67 -25 -75 -4 -9 -11 -31 -15 -50 -4 -19 -11 -41 -16
-50 -4 -8 -13 -36 -19 -62 -24 -110 -32 -144 -37 -158 -3 -8 -7 -24 -9 -35 -5
-37 -42 -184 -49 -195 -3 -5 -10 -31 -15 -58 -5 -26 -18 -81 -30 -122 -11 -41
-31 -115 -44 -165 -13 -49 -33 -117 -45 -150 -32 -94 -81 -290 -81 -325 0 -30
-58 -158 -133 -295 -18 -33 -41 -87 -51 -120 -10 -33 -23 -73 -28 -90 -18 -55
-38 -129 -59 -210 -11 -44 -31 -104 -46 -134 -31 -67 -48 -228 -39 -374 l6
-99 -40 -45 c-22 -25 -40 -54 -40 -63 0 -10 -7 -23 -15 -30 -8 -7 -15 -26 -15
-42 0 -16 -7 -40 -16 -53 -19 -29 -15 -151 7 -204 42 -103 159 -151 362 -151
81 0 141 -5 173 -15 27 -8 74 -15 105 -15 31 0 78 -7 105 -15 27 -8 73 -15
102 -15 29 0 69 -7 89 -15 19 -8 57 -15 83 -15 26 0 64 -7 83 -15 20 -8 52
-15 71 -15 18 0 47 -7 62 -15 16 -8 43 -15 61 -15 17 0 34 -4 37 -9 3 -4 35
-11 71 -14 36 -3 74 -11 84 -17 32 -16 263 -13 297 5 16 8 37 15 46 15 9 0 20
5 23 10 3 6 14 10 24 10 10 0 24 6 31 14 6 8 28 16 48 18 l37 3 6 260 c3 159
10 274 17 295 7 19 12 56 12 82 0 26 4 49 9 52 5 4 12 29 16 56 4 27 11 52 16
56 5 3 9 15 9 27 0 12 7 35 15 51 8 15 15 36 15 45 0 10 7 26 15 37 8 10 15
28 15 40 0 11 7 29 15 40 8 10 15 27 15 37 0 11 7 32 15 48 8 16 22 42 30 58
8 16 15 36 15 43 0 23 96 118 119 118 11 0 22 -9 26 -20 3 -11 11 -20 16 -20
5 0 9 -15 9 -32 1 -18 7 -44 15 -58 8 -14 15 -50 15 -80 1 -30 7 -73 15 -95 8
-23 15 -77 15 -125 0 -48 7 -102 15 -125 8 -22 15 -62 15 -90 0 -27 7 -68 15
-90 8 -22 15 -58 15 -81 0 -22 4 -44 9 -50 5 -5 14 -38 20 -74 10 -63 32 -160
43 -190 9 -24 28 -139 38 -229 5 -47 14 -98 20 -114 16 -47 12 -228 -5 -251
-8 -11 -15 -34 -15 -51 0 -17 -4 -35 -9 -41 -10 -12 -41 -107 -41 -129 0 -10
-6 -31 -13 -48 -21 -49 -38 -100 -44 -127 -3 -14 -10 -30 -15 -37 -5 -6 -13
-33 -17 -60 -5 -26 -14 -61 -19 -78 -21 -59 -28 -151 -15 -183 15 -38 70 -72
115 -72 27 0 44 9 76 41 23 22 42 49 42 60 0 10 4 19 9 19 8 0 21 -116 21
-187 0 -19 -6 -49 -13 -66 -26 -60 -39 -102 -46 -142 -4 -23 -11 -47 -16 -55
-5 -8 -12 -32 -17 -55 -20 -108 -34 -164 -40 -171 -5 -4 -8 -19 -8 -33 0 -14
-7 -39 -15 -55 -8 -15 -15 -37 -15 -48 0 -11 -7 -34 -16 -51 -9 -18 -20 -39
-24 -47 -12 -26 -84 -69 -115 -69 -16 0 -41 6 -55 14 -14 8 -35 14 -47 15 -33
0 -81 -46 -89 -86 -3 -19 -10 -37 -15 -40 -11 -7 -12 -181 0 -188 4 -3 11 -35
14 -71 3 -36 11 -74 17 -84 5 -11 10 -33 10 -49 0 -16 7 -35 15 -42 8 -7 15
-17 15 -22 0 -12 49 -75 102 -133 30 -31 38 -48 38 -77 0 -21 -4 -38 -10 -38
-5 0 -10 -7 -10 -16 0 -9 -13 -33 -28 -53 -16 -20 -32 -43 -35 -51 -4 -8 -11
-22 -16 -30 -8 -14 -15 -29 -55 -123 -9 -21 -16 -49 -16 -62 0 -13 -4 -26 -9
-29 -5 -4 -12 -25 -16 -49 -4 -23 -12 -47 -17 -54 -5 -7 -7 -55 -4 -115 3 -57
10 -238 14 -403 9 -311 12 -333 56 -382 16 -19 30 -23 77 -23 58 0 59 1 125
62 37 35 121 119 188 187 253 260 634 638 693 690 72 61 106 93 218 200 44 42
102 94 128 115 78 62 912 897 940 941 14 22 39 55 56 73 17 19 56 71 87 118
30 46 59 86 65 90 6 3 14 16 20 27 5 12 13 29 17 37 30 53 42 85 42 108 0 15
7 40 15 56 19 36 19 125 0 150 -8 11 -15 27 -15 37 0 46 -134 255 -193 301
-142 109 -237 210 -237 250 0 11 -7 26 -15 34 -8 9 -15 33 -15 54 0 21 -4 42
-10 45 -13 8 -13 282 -1 289 5 4 12 29 16 56 4 27 11 52 16 56 5 3 9 17 9 31
0 13 6 37 13 51 19 38 46 90 75 142 13 25 31 59 40 75 27 50 86 138 110 165
12 14 22 30 22 37 0 16 138 134 172 145 15 6 28 13 28 18 0 4 24 11 52 14 29
4 57 11 63 15 5 5 58 11 117 14 59 3 116 11 127 16 11 6 42 11 70 11 47 0 58
-5 143 -69 152 -113 271 -245 329 -366 13 -27 27 -51 32 -53 4 -2 7 -8 7 -13
0 -6 12 -36 26 -67 38 -83 54 -143 70 -271 10 -81 11 -124 4 -150 -5 -20 -10
-76 -10 -126 -1 -63 -5 -96 -15 -109 -8 -11 -15 -41 -15 -67 0 -26 -4 -50 -9
-53 -5 -3 -12 -22 -16 -42 -3 -20 -10 -44 -15 -53 -4 -9 -25 -51 -46 -94 -28
-59 -52 -92 -97 -133 -33 -30 -67 -54 -74 -54 -8 0 -21 -7 -29 -15 -9 -8 -24
-15 -35 -15 -10 0 -19 -4 -19 -9 0 -5 -10 -11 -23 -15 -13 -3 -45 -24 -70 -47
l-47 -41 0 -85 c0 -76 3 -90 24 -118 14 -17 28 -48 31 -68 4 -20 11 -37 15
-37 4 0 10 -10 14 -23 3 -13 17 -35 30 -50 13 -14 27 -35 30 -45 7 -22 669
-683 741 -740 28 -22 82 -70 120 -107 39 -37 93 -84 120 -105 28 -21 89 -76
137 -123 48 -47 95 -88 105 -91 10 -3 44 -31 75 -61 31 -30 62 -55 70 -55 8 0
32 -18 53 -40 21 -22 45 -40 52 -40 8 0 36 -20 62 -45 26 -25 54 -45 62 -45 8
-1 34 -21 59 -45 25 -25 50 -45 57 -45 7 0 39 -25 70 -55 32 -30 63 -55 69
-55 6 0 40 -27 75 -60 35 -33 67 -60 71 -60 11 0 30 -15 83 -67 24 -24 48 -43
55 -43 6 0 17 -6 24 -12 61 -60 106 -98 115 -98 5 0 31 -20 58 -45 26 -24 52
-45 57 -45 5 0 34 -20 64 -45 30 -25 60 -45 67 -45 7 0 15 -4 17 -9 5 -13 138
-101 153 -101 7 0 15 -7 19 -15 3 -8 12 -15 20 -15 7 0 27 -7 42 -15 16 -8 42
-15 57 -15 50 0 127 54 127 89 0 10 7 24 15 31 12 10 15 40 15 151 0 78 -5
150 -11 166 -6 15 -15 55 -20 88 -19 131 -34 214 -41 221 -5 4 -8 22 -8 40 0
33 -25 128 -41 154 -5 8 -13 25 -18 36 -5 12 -42 52 -81 90 -40 38 -106 102
-147 142 -41 39 -80 72 -88 72 -14 0 -109 100 -101 107 4 4 46 -16 56 -28 3
-3 35 -13 71 -23 62 -16 69 -16 117 -1 60 20 108 60 117 98 4 15 11 29 15 32
9 5 -20 127 -43 175 -9 19 -34 57 -56 84 -23 26 -41 51 -41 55 0 4 -43 51 -95
106 -52 54 -95 102 -95 106 0 4 -13 28 -30 52 -16 25 -30 49 -30 55 0 5 -7 23
-15 38 -8 16 -15 38 -15 50 0 11 -4 24 -9 30 -5 5 -14 32 -20 59 -5 28 -17 82
-26 120 -9 39 -20 88 -24 110 -5 22 -13 54 -19 70 -19 56 -34 120 -39 167 -3
26 -11 52 -19 59 -8 6 -14 26 -14 45 0 18 -4 35 -9 39 -12 7 -71 124 -71 140
0 7 -7 18 -15 25 -20 17 -19 40 2 40 37 0 91 34 107 67 20 41 20 129 1 163 -8
15 -14 53 -15 91 0 37 -7 83 -15 102 -8 20 -15 48 -15 63 0 43 -33 127 -64
162 -22 24 -38 32 -62 32 -18 0 -36 5 -39 10 -3 6 -17 10 -31 10 -32 0 -66 18
-59 31 4 5 16 9 28 9 13 0 46 24 84 62 l63 62 0 91 c-1 49 -5 122 -10 160 -5
39 -14 282 -21 540 -11 471 -7 601 22 705 6 25 13 51 15 58 3 9 9 10 22 3 17
-9 45 -62 173 -325 29 -60 58 -114 64 -120 6 -6 18 -24 26 -41 38 -73 82 -151
94 -165 7 -8 25 -38 40 -67 14 -29 32 -58 39 -66 8 -7 25 -38 40 -68 14 -30
49 -80 79 -112 50 -54 55 -57 102 -57 46 0 85 -19 85 -41 0 -5 14 -31 31 -59
28 -46 30 -55 24 -108 -10 -83 -10 -268 -1 -332 19 -136 76 -259 160 -347 33
-35 67 -63 77 -63 10 0 20 -4 23 -9 3 -4 33 -14 66 -20 63 -13 159 -3 210 22
40 19 114 69 123 84 5 7 13 11 18 7 6 -3 0 -19 -14 -37 -13 -18 -27 -42 -31
-54 -4 -13 -12 -23 -17 -23 -5 0 -9 -18 -9 -39 0 -22 -4 -42 -9 -45 -18 -12
-23 -94 -7 -125 9 -17 16 -56 16 -88 1 -35 6 -66 15 -77 8 -11 15 -32 15 -47
0 -15 4 -30 9 -34 5 -3 12 -19 16 -36 4 -17 13 -42 21 -57 8 -15 14 -34 14
-43 0 -8 4 -19 8 -25 5 -5 19 -38 32 -74 13 -36 27 -69 32 -74 4 -6 8 -18 8
-27 0 -9 7 -22 15 -29 8 -7 15 -22 15 -34 0 -11 7 -30 15 -40 8 -11 15 -28 15
-37 0 -10 6 -30 14 -46 8 -15 19 -39 24 -53 6 -14 24 -55 41 -91 17 -36 31
-71 31 -78 0 -7 6 -27 14 -44 8 -18 17 -39 20 -47 3 -8 10 -22 15 -30 5 -8 17
-35 26 -60 17 -43 40 -99 55 -130 4 -9 11 -30 14 -48 4 -17 12 -34 17 -37 5
-4 9 -13 9 -22 0 -15 21 -67 46 -115 8 -14 14 -37 14 -51 0 -13 7 -30 15 -37
8 -7 15 -27 15 -45 0 -18 7 -38 15 -45 8 -7 15 -25 15 -40 0 -15 7 -41 15 -56
23 -45 20 -154 -7 -206 -24 -47 -172 -199 -276 -282 -81 -64 -247 -226 -288
-280 -16 -22 -40 -51 -54 -66 -14 -14 -47 -52 -75 -84 -27 -31 -76 -84 -108
-118 -31 -33 -74 -81 -95 -106 -20 -26 -43 -53 -50 -60 -56 -60 -117 -313 -78
-328 23 -9 20 -34 -14 -97 -16 -31 -30 -63 -30 -71 0 -8 -8 -29 -17 -48 -30
-61 -33 -68 -33 -84 0 -9 -6 -30 -13 -47 -24 -57 -39 -101 -45 -132 -2 -16
-11 -39 -18 -50 -8 -11 -14 -36 -14 -56 0 -20 -7 -42 -15 -49 -10 -8 -15 -31
-15 -69 0 -31 -4 -61 -10 -67 -5 -5 -13 -39 -16 -74 -4 -36 -11 -70 -16 -77
-12 -16 -30 -294 -30 -483 -1 -169 16 -401 32 -429 5 -11 10 -35 10 -55 0 -19
5 -47 11 -63 7 -15 15 -46 19 -68 9 -46 26 -97 46 -138 8 -16 14 -34 14 -40 0
-17 49 -113 91 -177 39 -60 123 -143 164 -162 14 -6 25 -15 25 -19 0 -11 123
-69 146 -69 10 0 32 -7 48 -15 22 -12 68 -15 206 -15 138 0 184 3 206 15 16 8
36 15 44 15 26 1 135 82 181 135 24 28 67 84 94 125 28 41 53 77 56 80 3 3 16
28 30 55 13 28 27 52 32 53 4 2 7 8 7 13 0 5 14 37 30 71 17 34 30 69 30 78 0
9 7 25 15 36 8 10 15 28 15 39 0 11 7 29 15 39 8 11 15 32 15 48 0 15 4 28 9
28 5 0 12 21 16 46 4 26 11 54 15 63 5 9 12 37 15 63 3 26 10 50 16 53 5 4 9
25 9 48 0 23 7 51 15 61 10 13 15 43 15 82 0 46 4 63 15 68 11 4 15 22 15 69
0 35 4 67 10 73 5 5 13 50 16 99 4 50 10 95 15 100 4 6 10 44 14 85 3 41 10
84 15 95 5 11 12 46 15 77 4 32 11 60 16 63 5 4 9 16 9 28 0 60 57 167 89 167
8 0 22 6 30 14 9 7 37 17 62 20 44 7 48 5 79 -31 18 -21 59 -66 91 -101 33
-34 59 -65 59 -69 0 -4 19 -29 43 -57 146 -175 187 -225 187 -233 0 -4 18 -28
40 -53 22 -25 40 -49 40 -54 0 -5 20 -34 45 -64 25 -30 45 -61 45 -68 0 -8 4
-14 10 -14 5 0 13 -12 16 -27 4 -15 17 -36 28 -48 24 -23 56 -80 56 -100 0 -7
7 -18 15 -25 8 -7 15 -20 15 -29 0 -10 14 -30 30 -46 17 -16 30 -36 30 -46 0
-9 7 -22 15 -29 8 -7 15 -20 15 -30 0 -10 7 -23 15 -30 8 -7 15 -21 15 -30 0
-10 3 -20 8 -22 10 -4 42 -67 42 -83 0 -7 7 -18 15 -25 8 -7 15 -20 15 -30 0
-10 7 -23 15 -30 8 -7 15 -20 15 -30 0 -10 7 -23 15 -30 8 -7 15 -20 15 -30 0
-10 7 -23 15 -30 8 -7 15 -20 15 -30 0 -10 7 -23 15 -30 8 -7 15 -21 15 -31 0
-11 5 -19 10 -19 6 0 10 -6 10 -12 0 -7 6 -25 14 -40 8 -15 17 -40 21 -57 4
-17 11 -33 16 -36 5 -4 9 -16 9 -29 0 -12 7 -31 15 -42 8 -10 15 -30 15 -44 0
-14 7 -34 15 -44 8 -11 15 -30 15 -43 0 -13 4 -23 9 -23 5 0 12 -10 16 -22 6
-23 27 -79 50 -133 7 -16 18 -43 25 -60 6 -16 18 -43 26 -58 8 -16 14 -37 14
-47 0 -10 7 -20 15 -24 8 -3 15 -13 15 -23 0 -10 13 -45 29 -78 42 -86 137
-287 145 -305 3 -8 10 -22 15 -30 5 -8 12 -22 15 -30 3 -8 10 -23 16 -32 19
-34 30 -53 61 -115 17 -35 38 -68 45 -74 8 -6 14 -19 14 -29 0 -10 7 -23 15
-30 8 -7 15 -21 15 -31 0 -11 4 -19 9 -19 5 0 12 -9 16 -19 3 -11 26 -50 50
-87 25 -38 45 -74 45 -81 0 -7 4 -13 8 -13 8 0 42 -53 42 -65 0 -8 -120 -135
-370 -390 -894 -913 -1072 -1096 -1106 -1134 -21 -25 -66 -70 -98 -100 -32
-31 -80 -78 -105 -105 -25 -28 -82 -89 -126 -136 -124 -133 -159 -172 -176
-197 -8 -13 -47 -56 -85 -96 -39 -39 -99 -106 -133 -147 -35 -41 -91 -104
-125 -140 -34 -36 -87 -94 -117 -130 -30 -36 -66 -77 -79 -91 -89 -91 -165
-175 -224 -244 -38 -44 -112 -125 -165 -181 -53 -55 -118 -127 -146 -160 -27
-32 -91 -101 -140 -154 -50 -52 -107 -112 -125 -134 -224 -250 -461 -492 -642
-658 -47 -42 -107 -106 -134 -142 -27 -36 -159 -173 -293 -303 -277 -269 -550
-541 -821 -819 -102 -104 -219 -220 -260 -259 -41 -38 -111 -103 -155 -145
-181 -169 -230 -211 -254 -216 -14 -3 -36 -10 -48 -16 -46 -22 -49 -16 -83
187 -7 39 -16 106 -20 150 -4 44 -12 93 -19 108 -6 16 -11 54 -11 86 0 32 -4
71 -10 87 -10 30 -26 168 -39 340 -4 55 -11 106 -15 112 -8 13 -18 108 -36
322 -5 63 -14 135 -20 158 -6 24 -15 207 -20 405 -5 199 -14 405 -19 457 -5
52 -12 174 -16 270 -3 96 -10 294 -16 440 -5 146 -14 407 -19 580 -9 303 -29
689 -50 950 -6 69 -15 337 -20 595 -6 259 -14 506 -19 550 -18 144 -31 1998
-15 2039 12 31 28 10 40 -50 14 -70 33 -141 44 -169 12 -33 31 -107 40 -160 5
-27 13 -68 18 -90 28 -108 42 -183 42 -216 0 -20 7 -56 15 -79 8 -23 15 -73
15 -111 0 -37 5 -80 11 -96 6 -15 15 -93 20 -173 5 -80 16 -203 24 -275 9 -71
20 -185 25 -252 5 -67 14 -131 19 -142 6 -11 11 -53 11 -93 1 -48 6 -80 15
-92 8 -11 15 -41 15 -67 0 -26 7 -60 15 -75 8 -16 15 -43 15 -61 0 -17 4 -34
9 -38 6 -3 13 -27 17 -53 4 -26 13 -56 20 -67 8 -11 14 -33 14 -50 0 -17 4
-35 9 -40 5 -6 14 -30 19 -55 24 -104 34 -136 43 -145 5 -5 9 -23 9 -40 0 -16
7 -39 15 -49 8 -11 15 -36 15 -57 0 -20 7 -42 15 -49 8 -7 15 -27 15 -44 0
-17 7 -40 15 -50 8 -11 15 -32 15 -47 0 -15 7 -40 15 -55 8 -16 15 -39 15 -50
0 -12 7 -35 15 -50 8 -16 15 -39 15 -51 0 -12 5 -25 10 -28 6 -3 10 -23 10
-44 0 -20 7 -46 15 -57 8 -11 15 -41 15 -70 0 -37 4 -54 15 -58 11 -4 15 -22
15 -68 1 -39 6 -70 15 -82 10 -13 15 -44 15 -85 1 -42 6 -73 15 -85 10 -13 15
-43 15 -87 0 -37 4 -70 9 -73 5 -3 12 -39 16 -78 4 -40 11 -86 16 -103 11 -33
25 -151 39 -324 5 -63 14 -139 20 -170 6 -31 10 -224 10 -445 0 -215 5 -434
11 -486 5 -52 14 -156 18 -230 5 -74 12 -146 15 -160 4 -14 10 -68 15 -120 5
-52 15 -117 21 -145 21 -88 42 -160 51 -170 5 -5 9 -21 9 -35 0 -14 7 -35 15
-46 8 -10 15 -28 15 -39 0 -11 7 -33 15 -49 8 -15 15 -34 15 -41 0 -7 7 -18
15 -25 8 -7 15 -19 15 -26 0 -21 30 -47 95 -82 77 -42 128 -43 193 -2 27 17
52 30 56 30 33 0 280 232 331 310 13 19 44 57 70 84 25 27 65 74 89 105 24 31
61 74 83 96 21 22 50 58 65 80 15 22 54 69 87 105 34 35 61 69 61 75 0 6 18
29 41 50 22 22 50 56 62 75 11 19 45 61 74 93 29 32 53 64 53 70 0 7 27 39 60
72 33 33 60 65 60 70 0 6 25 37 55 70 30 33 54 65 55 70 0 6 21 33 46 60 25
28 56 66 69 85 13 19 94 107 180 195 87 88 160 167 164 176 8 21 47 72 99 129
l42 47 0 135 c0 98 -4 146 -15 171 -8 20 -15 50 -15 67 0 17 -7 38 -15 46 -8
9 -15 33 -15 54 0 21 -7 51 -15 66 -8 16 -15 38 -15 49 0 12 -4 25 -9 30 -10
11 -27 95 -42 205 -6 41 -15 79 -20 85 -5 5 -9 48 -9 95 0 60 -4 92 -15 106
-11 14 -14 49 -15 136 0 67 -6 140 -14 171 -10 39 -14 130 -15 342 -1 238 -4
293 -16 312 -8 12 -15 43 -15 68 0 25 -4 45 -9 45 -5 0 -12 20 -15 45 -4 24
-11 47 -17 50 -5 4 -9 21 -9 38 -1 18 -7 43 -15 57 -8 14 -14 42 -15 63 0 21
-7 54 -15 74 -8 19 -15 61 -15 92 -1 31 -7 67 -15 81 -9 16 -14 55 -15 108 0
46 -5 93 -12 105 -6 12 -15 67 -19 122 -4 55 -12 118 -18 140 -6 22 -11 102
-11 177 0 75 -4 139 -9 142 -4 3 -11 26 -14 51 -8 54 -36 143 -48 151 -5 3 -9
14 -9 24 0 44 -110 215 -229 355 -92 109 -147 230 -171 371 -4 28 -13 61 -19
72 -6 11 -11 41 -11 65 0 25 -7 64 -15 87 -8 23 -15 59 -15 79 0 20 -7 58 -15
85 -8 27 -15 79 -15 115 0 36 -7 107 -15 156 -17 105 -20 566 -4 705 21 177
21 252 3 330 -15 66 -29 99 -57 135 -4 6 -17 22 -28 38 -20 27 -171 147 -184
147 -4 0 -24 14 -45 30 -21 17 -42 30 -47 30 -4 0 -20 11 -35 25 -15 14 -30
25 -33 25 -6 0 -123 83 -145 104 -8 7 -33 25 -55 38 -22 14 -56 39 -75 57 -19
17 -40 31 -45 31 -6 0 -25 14 -43 30 -18 17 -36 30 -40 30 -4 0 -36 25 -72 55
-35 30 -67 55 -71 55 -3 0 -22 13 -40 30 -19 16 -40 30 -48 30 -8 0 -19 7 -25
16 -12 16 -74 22 -95 10 -5 -3 -12 -19 -16 -36 -8 -37 -88 -194 -120 -236 -14
-18 -25 -40 -25 -49 0 -8 -7 -18 -15 -21 -8 -4 -15 -11 -15 -18 0 -6 -14 -29
-30 -50 -17 -22 -30 -44 -30 -50 -1 -6 -19 -29 -40 -51 -22 -22 -40 -47 -40
-55 -1 -8 -25 -42 -55 -75 -30 -33 -55 -62 -55 -66 0 -3 -10 -17 -23 -31 -43
-47 -97 -115 -97 -124 0 -5 -14 -22 -31 -39 -17 -16 -42 -46 -54 -65 -12 -19
-35 -48 -50 -65 -14 -16 -30 -37 -33 -47 -4 -9 -19 -31 -35 -50 -40 -48 -137
-199 -137 -213 0 -7 -7 -18 -15 -25 -54 -45 51 -170 143 -170 16 0 32 -3 36
-7 8 -9 213 -28 413 -41 75 -4 127 -12 135 -20 6 -6 33 -12 58 -12 25 0 55 -7
66 -15 10 -8 35 -15 54 -15 19 0 44 -7 54 -15 11 -8 36 -15 55 -15 20 0 45 -7
55 -15 11 -8 37 -15 57 -15 21 0 40 -4 43 -9 4 -5 25 -12 49 -16 23 -4 47 -11
52 -15 6 -4 25 -11 43 -15 17 -3 32 -11 32 -16 0 -5 9 -9 19 -9 17 0 145 -79
161 -99 3 -3 29 -26 58 -50 28 -23 49 -47 46 -52 -9 -15 -171 -11 -211 6 -19
8 -48 15 -64 15 -15 0 -30 4 -33 9 -3 5 -22 12 -41 15 -19 4 -35 11 -35 16 0
6 -7 10 -15 10 -9 0 -41 14 -72 30 -31 17 -61 30 -68 30 -7 0 -18 7 -25 15 -7
8 -22 15 -34 15 -11 0 -30 7 -40 15 -11 8 -29 15 -40 15 -12 0 -30 7 -40 15
-11 8 -30 15 -42 15 -12 0 -35 7 -50 15 -16 8 -41 15 -57 15 -15 0 -35 4 -45
10 -9 5 -43 12 -74 15 -32 4 -60 11 -63 16 -4 5 -27 9 -53 9 -26 1 -65 7 -87
15 -22 8 -66 15 -98 15 -32 0 -74 7 -94 15 -19 8 -51 15 -71 15 -19 0 -59 8
-89 17 -50 16 -56 16 -107 0 -47 -15 -56 -22 -79 -66 -13 -27 -28 -67 -32 -90
-4 -22 -11 -43 -16 -47 -5 -3 -9 -29 -9 -57 -1 -29 -7 -63 -15 -77 -9 -15 -14
-54 -15 -100 -1 -142 -23 -202 -34 -92 -4 31 -11 86 -17 122 -15 87 -25 158
-39 260 -6 46 -15 89 -20 94 -6 6 -10 25 -10 43 0 18 -6 47 -14 65 -23 57 -46
135 -46 159 -1 13 -7 35 -15 49 -17 30 -19 86 -4 95 6 4 13 14 17 24 6 14 49
81 214 329 26 41 48 77 48 80 0 4 14 23 31 42 17 19 39 46 48 60 25 39 124
174 132 180 3 3 19 23 35 46 61 86 163 217 289 369 71 86 145 195 145 214 0 4
12 18 26 32 42 38 58 85 43 123 -19 46 -92 139 -195 246 -51 52 -110 118 -132
145 -51 64 -356 365 -370 365 -6 0 -136 124 -289 276 -410 407 -520 508 -586
538 -23 10 -50 22 -59 27 -54 27 -65 19 -301 -218 -124 -126 -244 -250 -267
-278 -65 -76 -390 -404 -796 -801 -124 -122 -166 -182 -136 -196 4 -2 16 -20
27 -40 27 -52 113 -150 154 -179 45 -31 417 -403 493 -494 77 -91 355 -372
390 -394 16 -10 46 -34 68 -54 21 -21 42 -37 46 -37 4 0 16 -8 27 -18 25 -23
135 -22 168 2 48 33 79 22 156 -57 73 -74 143 -168 143 -193 0 -8 4 -14 8 -14
5 0 16 -15 25 -32 9 -18 28 -51 42 -73 14 -22 32 -55 40 -72 8 -18 19 -33 24
-33 22 0 17 -88 -8 -145 -5 -11 -12 -95 -15 -188 -3 -92 -10 -175 -15 -185
-27 -50 -40 -229 -19 -250 10 -10 13 -110 14 -420 0 -224 3 -427 7 -452 6 -41
19 -271 33 -595 3 -71 10 -184 15 -250 5 -66 14 -185 19 -265 10 -146 19 -245
46 -465 10 -87 14 -246 15 -570 0 -248 5 -547 11 -665 7 -118 13 -480 14 -805
1 -351 7 -628 13 -685 22 -184 42 -600 51 -1035 5 -242 13 -471 19 -510 5 -38
10 -104 10 -145 1 -41 5 -129 11 -195 28 -337 30 -351 75 -718 10 -76 15 -140
12 -144 -6 -5 -112 85 -195 166 -21 20 -53 43 -73 52 -19 9 -67 45 -105 80
-87 80 -532 497 -559 524 -11 11 -74 70 -140 130 -65 61 -180 169 -255 241
-74 73 -160 154 -190 180 -53 47 -129 119 -321 302 -50 48 -106 101 -124 117
-132 123 -280 262 -289 270 -6 6 -72 66 -146 135 -74 69 -140 130 -146 135
-14 13 -317 300 -449 425 -55 53 -143 136 -195 185 -88 82 -148 139 -365 344
-164 155 -352 331 -530 496 -72 66 -161 149 -199 185 -38 36 -81 76 -96 90
-23 22 -97 91 -425 400 -44 42 -114 107 -155 146 -41 39 -118 111 -170 160
-52 50 -207 195 -345 324 -137 129 -291 272 -340 319 -50 47 -126 120 -170
161 -152 141 -231 216 -395 371 -91 86 -178 168 -195 183 -53 49 -156 146
-340 320 -207 196 -315 298 -435 412 -47 44 -132 125 -190 180 -58 54 -110
104 -116 109 -6 6 -49 46 -95 90 -46 44 -154 145 -239 225 -139 130 -395 371
-585 551 -38 36 -191 180 -340 320 -236 222 -434 409 -744 704 -46 44 -98 93
-115 109 -17 16 -72 67 -121 115 -250 239 -617 588 -679 645 -31 29 -136 128
-311 295 -49 47 -131 124 -180 171 -50 47 -140 132 -200 190 -61 58 -196 186
-300 285 -698 660 -1073 1033 -1103 1097 -40 82 -24 148 53 216 26 23 51 42
56 42 4 0 72 75 150 168 79 92 164 190 190 217 25 28 122 133 214 235 92 102
189 208 214 235 25 28 96 104 156 170 61 66 112 122 115 125 3 3 61 66 130
140 69 74 164 175 211 225 47 49 130 137 185 195 54 58 135 143 180 190 45 47
96 101 115 121 19 20 70 74 114 121 160 168 252 266 371 393 318 342 706 758
774 830 42 44 116 123 166 175 341 364 419 446 499 530 50 52 129 136 176 185
170 180 306 322 414 435 115 119 301 314 345 360 14 15 102 107 196 206 94 98
237 251 319 339 336 362 394 423 470 505 45 47 119 126 165 175 46 50 122 131
169 180 47 50 127 133 176 185 50 52 173 183 275 290 102 107 219 231 260 274
91 96 94 100 250 267 68 74 199 208 290 299 91 91 206 208 255 260 50 53 128
136 174 185 47 50 128 135 180 190 89 93 398 419 466 491 17 17 70 74 119 125
50 52 133 139 185 194 52 55 140 147 195 205 118 123 409 429 522 549 103 109
114 131 124 255 4 55 12 114 19 129 6 16 11 43 11 61 0 19 7 50 15 69 8 20 15
52 15 72 0 19 4 35 9 35 5 0 12 18 16 41 4 22 13 53 21 67 8 15 14 35 14 44 0
9 5 20 10 23 6 3 10 14 10 24 0 10 7 24 15 31 8 7 15 20 15 30 0 10 7 23 15
30 8 7 15 18 15 25 0 7 20 44 45 82 25 37 45 71 45 75 0 5 10 19 21 32 22 25
29 36 63 97 10 19 26 43 36 54 10 11 24 32 31 46 33 61 264 304 449 469 107
96 122 108 237 185 138 93 188 115 260 115 34 0 64 4 68 9 3 5 20 13 37 17 18
3 39 10 48 14 117 58 476 89 630 55z m-903 -1500 c15 -31 15 -43 5 -95 -32
-151 -120 -258 -244 -294 -74 -21 -73 -21 -97 18 -34 55 -29 94 28 215 28 60
92 118 171 155 97 46 116 46 137 1z m1738 18 c11 -6 31 -15 45 -21 14 -5 34
-26 44 -46 19 -35 19 -37 0 -73 -23 -46 -41 -66 -85 -99 -40 -29 -150 -64
-203 -64 -83 0 -186 55 -186 100 0 10 -4 22 -10 25 -15 9 -12 37 10 82 24 50
53 69 138 93 73 21 211 22 247 3z m-227 -1320 l44 -18 -7 -65 c-3 -36 -9 -101
-13 -145 -4 -44 -13 -90 -20 -102 -6 -12 -12 -33 -12 -47 0 -14 -4 -27 -9 -30
-5 -3 -12 -18 -16 -33 -16 -65 -69 -80 -149 -43 -48 21 -146 105 -146 124 0 7
-12 35 -27 62 -45 82 -36 194 19 265 7 9 35 19 63 22 27 4 54 12 59 17 17 17
166 12 214 -7z m-3238 -2922 c0 -16 6 -31 14 -34 8 -3 18 -22 22 -41 3 -20 10
-36 14 -36 5 0 11 -13 15 -30 4 -16 11 -30 16 -30 5 0 9 -8 9 -19 0 -10 7 -24
15 -31 8 -7 15 -20 15 -30 0 -10 7 -23 15 -30 8 -7 15 -22 15 -34 0 -11 7 -30
15 -40 8 -11 15 -30 15 -42 0 -12 7 -27 15 -34 8 -7 15 -20 15 -30 0 -10 7
-23 15 -30 8 -7 15 -27 15 -45 0 -19 3 -35 8 -37 14 -6 42 -70 42 -98 0 -15 7
-33 15 -40 8 -7 15 -20 15 -29 0 -9 7 -25 15 -35 8 -11 15 -32 15 -47 0 -14 7
-32 15 -39 8 -7 15 -26 15 -42 0 -16 7 -36 15 -44 8 -9 15 -26 15 -38 0 -13
11 -44 25 -70 14 -26 25 -59 25 -73 0 -15 7 -35 17 -45 12 -14 14 -23 6 -40
-9 -20 -24 6 -122 207 -62 127 -116 237 -121 246 -5 9 -29 70 -55 135 -25 66
-52 132 -60 147 -8 16 -15 38 -15 50 0 12 -7 31 -15 41 -8 11 -15 32 -15 47 0
15 -4 30 -9 34 -5 3 -12 20 -16 38 -4 17 -20 73 -36 122 -58 176 -58 175 -34
175 10 0 15 -10 15 -29z m3204 -1420 c28 -27 81 -133 99 -201 29 -105 28 -407
-2 -503 -5 -18 -14 -48 -18 -67 -10 -40 -33 -49 -61 -23 -56 54 -123 113 -167
148 -27 22 -51 43 -53 47 -2 4 -23 17 -48 29 -24 13 -44 26 -44 31 0 4 -11 8
-25 8 -14 0 -28 7 -31 15 -4 8 -16 15 -28 15 -11 1 -32 7 -46 15 -16 9 -55 14
-111 15 -72 0 -88 -3 -105 -20 -33 -34 -44 -49 -44 -63 0 -8 -7 -20 -15 -27
-8 -7 -15 -25 -15 -41 0 -38 -60 -121 -108 -151 -20 -12 -40 -26 -43 -31 -4
-5 -12 -7 -18 -3 -7 5 -5 20 7 49 25 61 23 423 -3 514 -9 34 -15 69 -12 77 7
18 97 46 146 46 38 0 145 22 221 46 25 8 57 14 72 14 15 0 30 5 33 10 3 6 14
10 24 10 10 0 41 6 67 14 208 60 286 66 328 27z m1454 -23 c-6 -18 -28 -21
-28 -4 0 9 7 16 16 16 9 0 14 -5 12 -12z m-282 -27 c16 -5 45 -12 65 -15 28
-5 38 -12 43 -31 4 -14 11 -25 16 -25 12 0 13 -37 1 -44 -4 -3 -11 -33 -14
-67 -3 -34 -10 -66 -16 -72 -6 -6 -11 -25 -11 -41 0 -17 -7 -44 -15 -60 -8
-15 -15 -47 -15 -71 0 -26 -6 -47 -15 -55 -8 -7 -15 -27 -15 -44 0 -17 -7 -40
-15 -50 -8 -11 -15 -27 -15 -37 0 -9 -7 -30 -15 -45 -8 -16 -15 -39 -15 -51 0
-12 -6 -26 -14 -30 -8 -4 -15 -17 -17 -28 -4 -18 -14 -21 -109 -26 -58 -3
-142 -11 -187 -18 -64 -10 -93 -10 -130 -1 -26 6 -68 15 -93 18 l-45 7 -3 99
c-2 72 2 110 13 138 8 21 15 62 15 91 0 29 5 58 11 64 6 6 14 41 16 77 3 37
10 69 14 72 5 3 9 13 9 23 0 10 7 24 15 31 8 7 15 28 15 47 0 21 6 36 15 39 8
4 15 14 15 24 0 9 9 27 20 40 19 22 30 24 181 31 89 5 164 11 167 14 9 8 97 6
128 -4z m-2907 -150 c24 -24 51 -74 51 -94 0 -8 7 -28 15 -43 8 -16 15 -38 15
-49 1 -11 7 -31 15 -45 8 -14 14 -39 15 -55 0 -17 4 -35 9 -40 9 -10 26 -124
38 -248 4 -51 2 -59 -19 -77 -12 -11 -32 -19 -42 -20 -10 0 -48 -13 -83 -30
-34 -16 -69 -30 -76 -30 -6 0 -21 -7 -31 -15 -11 -8 -30 -15 -43 -15 -23 0
-29 -2 -91 -33 -19 -9 -44 -17 -57 -17 -12 0 -28 -7 -35 -15 -7 -8 -20 -15
-30 -15 -10 0 -30 -6 -46 -14 -25 -14 -29 -13 -51 7 -12 12 -23 34 -23 48 0
15 -7 32 -15 39 -8 7 -15 25 -15 40 0 16 -6 41 -14 57 -14 28 -33 92 -43 148
-3 17 -9 35 -13 40 -5 6 -11 32 -15 59 -4 27 -14 61 -21 75 -8 14 -14 34 -14
43 0 9 -4 20 -10 23 -5 3 -10 19 -10 34 0 15 -7 36 -15 47 -8 10 -15 36 -15
58 0 37 1 38 28 31 53 -14 139 -5 221 24 34 12 70 21 80 21 11 0 22 4 25 9 3
4 28 11 55 15 28 4 53 11 56 16 3 6 21 10 38 10 18 0 41 7 51 15 29 22 92 19
115 -4z m2101 -796 c7 -8 18 -15 25 -15 34 0 49 -151 20 -206 -8 -16 -15 -42
-15 -59 0 -16 -7 -39 -15 -49 -8 -11 -15 -34 -15 -52 0 -18 -4 -36 -10 -39 -5
-3 -10 -19 -10 -35 0 -16 -7 -35 -15 -44 -8 -8 -15 -28 -15 -44 0 -16 -7 -35
-15 -42 -8 -7 -15 -20 -15 -30 0 -10 -7 -23 -15 -30 -8 -7 -15 -27 -15 -45 0
-18 -7 -38 -15 -45 -8 -7 -15 -20 -15 -30 0 -10 -7 -23 -15 -30 -8 -7 -15 -21
-15 -31 0 -11 -4 -19 -8 -19 -4 0 -19 -21 -33 -47 -45 -86 -52 -98 -61 -101
-4 -2 -8 -10 -8 -17 0 -15 -73 -127 -95 -145 -8 -7 -15 -17 -15 -23 0 -8 -82
-112 -101 -127 -3 -3 -25 -26 -47 -53 -23 -26 -76 -77 -119 -115 -43 -37 -84
-73 -91 -80 -8 -7 -38 -24 -67 -38 -51 -24 -56 -24 -84 -10 -17 9 -36 16 -43
16 -7 0 -42 15 -77 32 -44 23 -86 57 -137 111 -41 43 -74 83 -74 87 0 5 -11
26 -26 47 -14 20 -39 67 -55 103 -17 36 -50 106 -74 155 -76 158 -125 264
-125 272 0 4 -56 120 -124 258 -68 137 -134 273 -146 300 -12 28 -27 61 -34
75 -21 40 -29 100 -14 101 7 1 372 2 810 3 623 1 800 4 809 14 7 6 33 12 59
12 25 0 56 7 70 14 34 19 65 19 80 1z m-1875 -2747 c69 -12 80 -17 83 -35 3
-19 -19 -84 -51 -151 -17 -35 -15 -305 2 -326 7 -8 17 -32 21 -51 8 -34 6 -38
-23 -56 -28 -17 -52 -19 -209 -19 -97 0 -211 5 -254 11 -43 6 -143 14 -223 19
-80 5 -177 13 -216 19 -38 5 -95 10 -126 10 -33 1 -61 6 -67 14 -14 17 -20
302 -8 387 11 76 35 135 71 174 l26 28 447 -5 c309 -4 472 -10 527 -19z m3328
-44 c3 -4 -16 -30 -44 -58 -72 -72 -89 -113 -89 -207 0 -64 4 -86 25 -126 27
-50 43 -66 157 -160 38 -30 65 -59 62 -64 -7 -12 -78 -11 -150 2 -171 32 -376
46 -408 29 -26 -13 -331 -8 -455 8 -88 12 -121 29 -121 66 0 12 -7 34 -15 50
-9 16 -15 56 -15 95 -1 38 -7 76 -15 91 -8 14 -14 53 -15 90 0 56 3 68 23 85
39 35 86 55 125 55 21 0 43 5 49 11 7 7 33 9 74 4 113 -12 533 -16 554 -6 11
5 59 13 107 16 49 4 90 11 94 16 6 10 47 12 57 3z m-1310 -2565 c-3 -11 -9
-22 -14 -25 -5 -3 -9 -22 -9 -43 0 -22 -6 -44 -15 -51 -8 -7 -15 -27 -15 -45
0 -20 -6 -35 -15 -39 -8 -3 -15 -12 -15 -19 0 -8 -11 -34 -25 -58 -14 -24 -27
-51 -31 -59 -14 -36 -40 -85 -45 -90 -4 -3 -17 -24 -30 -48 -91 -166 -194
-289 -275 -330 -36 -18 -143 -35 -224 -35 -77 0 -206 17 -225 29 -11 8 -35 14
-55 14 -19 0 -44 7 -54 15 -11 8 -30 15 -43 15 -13 0 -23 4 -23 9 0 5 -13 14
-29 19 -31 11 -104 100 -116 142 -4 14 -11 30 -15 35 -4 6 -11 25 -15 43 -3
17 -11 32 -16 32 -5 0 -9 11 -9 25 0 14 -7 42 -15 62 -21 51 -21 348 0 389 8
16 15 39 15 52 0 12 5 22 10 22 6 0 10 8 10 19 0 21 23 45 33 34 4 -3 7 -49 7
-101 0 -93 13 -155 49 -230 22 -46 144 -164 191 -185 8 -4 22 -11 30 -16 54
-32 78 -36 209 -36 l136 0 75 36 c86 42 177 120 206 176 10 21 21 40 24 43 8
8 38 73 45 98 3 12 10 22 14 22 5 0 11 16 14 35 3 20 24 63 46 97 23 33 41 64
41 69 0 6 10 14 23 18 19 8 31 0 88 -56 48 -47 65 -70 62 -84z m3484 -1016
c99 -99 138 -228 113 -373 -18 -98 -23 -200 -12 -224 6 -12 15 -36 22 -53 23
-60 129 -140 210 -158 32 -7 49 -40 31 -58 -6 -6 -11 -29 -11 -52 0 -49 -9
-85 -21 -85 -5 0 -28 12 -51 26 -56 35 -129 74 -140 74 -40 0 -221 113 -288
180 -80 79 -192 284 -205 372 -3 26 -10 50 -16 53 -14 9 -11 69 6 101 8 16 15
38 15 50 0 11 7 29 15 40 8 10 15 28 15 40 0 24 20 42 75 67 22 11 51 25 65
32 14 7 49 14 77 14 50 1 55 -2 100 -46z m-543 -878 c8 -8 21 -15 29 -15 8 0
20 -7 27 -15 7 -8 18 -15 25 -15 8 0 28 -8 47 -17 18 -9 45 -22 60 -30 14 -7
33 -13 41 -13 13 0 58 -18 99 -41 10 -5 26 -9 36 -9 10 0 23 -5 29 -11 6 -6
29 -15 50 -19 45 -10 97 -27 136 -46 16 -8 35 -14 42 -14 7 0 28 -8 47 -17 18
-9 47 -23 63 -32 17 -8 52 -30 78 -49 l48 -35 -5 -121 c-6 -172 -25 -336 -42
-373 l-15 -33 -283 0 c-229 0 -290 3 -319 15 -20 8 -51 15 -68 15 -30 0 -114
23 -151 41 -10 5 -22 9 -28 9 -5 0 -38 14 -72 30 -34 17 -67 30 -74 30 -24 0
-38 29 -25 56 6 14 14 64 17 112 4 48 11 92 16 99 5 6 12 38 15 70 3 32 10 63
14 69 5 6 12 33 16 60 3 26 12 59 20 74 7 14 13 35 13 47 0 12 5 25 10 28 6 3
10 19 10 34 0 15 7 36 15 47 8 10 15 31 15 45 0 14 3 29 7 32 11 12 41 8 57
-8z m-188 -1060 c16 -8 41 -15 55 -15 15 0 40 -7 55 -15 16 -8 45 -15 65 -15
19 0 40 -5 46 -11 8 -8 109 -12 336 -13 367 -2 361 -1 350 -70 -3 -22 -12 -50
-19 -61 -8 -11 -14 -26 -14 -34 0 -23 -112 -257 -130 -271 -4 -3 -15 -21 -26
-40 -26 -48 -73 -111 -102 -137 -21 -19 -36 -23 -96 -23 -43 0 -82 6 -100 15
-15 8 -40 15 -55 15 -14 0 -35 7 -45 15 -11 8 -27 15 -35 15 -53 0 -186 109
-223 182 -32 65 -47 104 -53 146 -4 23 -10 42 -15 42 -4 0 -11 38 -15 85 -4
47 -11 87 -16 91 -10 6 -12 97 -2 107 8 9 6 9 39 -8z m134 -3002 c0 -52 4
-102 9 -111 13 -25 24 -524 11 -542 -9 -13 -11 -13 -20 0 -5 8 -10 22 -10 30
0 8 -7 24 -15 34 -8 11 -15 30 -15 43 0 13 -4 31 -9 41 -22 40 -33 293 -21
462 6 90 14 168 17 173 3 5 16 -2 29 -14 22 -21 24 -30 24 -116z"/>
<path d="M22744 28138 c-32 -35 -137 -146 -233 -248 -168 -177 -226 -237 -442
-465 -53 -55 -208 -219 -345 -365 -137 -146 -275 -292 -306 -326 -32 -33 -58
-66 -58 -72 0 -7 -5 -12 -12 -12 -6 0 -9 -2 -7 -5 3 -2 30 5 60 16 30 12 81
31 114 43 33 13 73 28 88 35 16 6 33 11 38 11 15 0 111 30 131 41 10 5 27 9
38 9 10 0 41 7 67 15 26 8 73 22 103 31 30 8 75 21 100 29 25 7 72 21 105 30
33 9 78 23 100 30 22 7 67 21 100 30 33 10 64 21 70 26 5 5 15 9 23 9 24 0
169 69 240 114 77 49 171 171 187 243 3 18 11 35 16 38 5 4 9 96 9 209 0 155
-4 214 -15 246 -8 23 -15 55 -15 70 0 15 -9 62 -21 106 -12 43 -26 100 -31
127 -14 64 -32 61 -104 -15z"/>
<path d="M26808 28190 c-11 -7 -19 -30 -24 -68 -3 -31 -9 -61 -13 -67 -16 -27
-40 -114 -41 -146 0 -20 -7 -42 -15 -49 -8 -7 -15 -27 -15 -45 0 -18 -7 -38
-15 -45 -9 -7 -15 -30 -15 -54 0 -22 -7 -50 -15 -60 -8 -11 -15 -39 -15 -62 0
-24 -4 -46 -10 -49 -15 -9 -12 -147 3 -184 8 -19 29 -39 58 -54 25 -13 54 -29
64 -35 11 -5 40 -18 65 -27 25 -10 59 -24 77 -31 17 -8 37 -14 45 -14 8 0 18
-4 24 -8 5 -5 43 -18 84 -31 41 -12 85 -27 98 -32 13 -5 31 -9 40 -9 9 0 30
-7 46 -15 15 -8 34 -15 42 -15 7 0 28 -6 46 -14 18 -8 53 -22 78 -31 77 -30
114 -46 132 -55 10 -6 23 -10 29 -10 6 0 25 -6 42 -13 18 -8 84 -31 147 -52
117 -39 166 -62 255 -121 65 -42 169 -115 175 -123 3 -4 25 -22 50 -41 45 -34
109 -96 165 -160 17 -19 71 -71 120 -115 109 -97 235 -225 235 -237 0 -6 27
-36 60 -69 61 -60 184 -215 203 -256 6 -13 13 -23 17 -23 3 0 17 -19 29 -42
12 -24 40 -74 62 -113 22 -38 46 -86 55 -105 9 -19 41 -87 71 -150 55 -114 93
-197 117 -255 23 -55 48 -110 57 -125 5 -8 12 -22 15 -30 3 -8 12 -29 20 -47
8 -17 14 -36 14 -41 0 -6 8 -25 17 -44 40 -79 47 -94 53 -108 4 -8 14 -30 23
-48 9 -19 17 -41 17 -51 0 -9 7 -26 15 -37 8 -10 15 -25 15 -33 0 -8 6 -22 13
-30 7 -9 21 -40 31 -70 11 -29 29 -73 42 -98 13 -24 24 -52 24 -61 0 -9 7 -30
15 -46 8 -15 15 -34 15 -41 0 -7 7 -18 15 -25 8 -7 15 -25 15 -41 0 -15 7 -34
15 -43 8 -8 15 -28 15 -44 0 -16 7 -35 15 -42 8 -7 15 -27 15 -46 0 -18 4 -35
9 -38 5 -4 12 -24 16 -46 4 -22 11 -42 16 -46 5 -3 9 -15 9 -28 0 -12 7 -31
15 -42 8 -10 15 -28 15 -39 0 -11 7 -33 15 -49 8 -15 15 -34 15 -41 0 -7 6
-18 14 -24 8 -6 16 -22 19 -34 10 -40 33 -97 45 -109 7 -7 12 -22 12 -35 0
-13 4 -23 9 -23 5 0 11 -12 14 -27 3 -16 17 -45 31 -66 14 -21 26 -44 26 -51
0 -8 7 -19 15 -26 8 -7 15 -20 15 -30 0 -10 7 -23 15 -30 8 -7 15 -18 15 -26
0 -7 6 -19 14 -26 7 -8 21 -30 31 -48 10 -19 21 -37 25 -40 4 -3 17 -27 31
-55 13 -27 38 -72 55 -100 17 -27 48 -86 68 -130 43 -91 58 -121 73 -150 28
-53 73 -156 73 -169 0 -7 6 -19 14 -25 8 -6 16 -22 19 -34 10 -40 33 -97 45
-109 7 -7 12 -24 12 -38 0 -14 7 -35 15 -46 8 -10 15 -29 15 -41 0 -21 28 -83
42 -93 3 -3 16 -30 27 -60 12 -30 26 -64 30 -75 17 -36 59 -172 86 -275 9 -36
23 -87 31 -114 8 -26 14 -59 14 -72 0 -12 4 -25 9 -28 4 -3 11 -31 14 -62 3
-31 11 -62 16 -67 6 -6 11 -53 11 -107 0 -57 6 -117 15 -146 12 -41 15 -136
15 -554 1 -419 3 -509 15 -530 9 -16 14 -55 15 -106 0 -44 3 -84 8 -88 4 -4
13 -42 20 -84 7 -42 17 -106 23 -142 6 -36 14 -69 18 -75 5 -5 12 -43 15 -84
4 -40 11 -81 16 -90 8 -16 23 -133 40 -308 4 -50 13 -100 19 -111 6 -12 11
-42 11 -69 0 -26 7 -66 15 -88 8 -22 14 -58 15 -81 0 -23 4 -54 10 -70 5 -16
14 -69 20 -119 22 -186 48 -367 85 -575 8 -47 19 -125 25 -175 6 -49 15 -100
20 -113 6 -13 10 -40 10 -60 0 -20 7 -59 15 -86 8 -27 15 -67 15 -88 0 -22 5
-48 11 -60 10 -19 18 -85 39 -338 11 -134 27 -197 61 -231 11 -11 25 -34 31
-50 5 -16 14 -29 19 -29 5 0 9 -11 9 -24 0 -13 7 -29 15 -36 8 -7 15 -17 15
-22 0 -11 84 -133 116 -167 13 -14 24 -31 24 -38 0 -6 14 -24 30 -40 17 -15
30 -35 30 -44 0 -8 11 -26 25 -39 14 -13 25 -29 25 -36 0 -7 14 -29 30 -47 17
-19 30 -38 30 -42 0 -4 13 -24 28 -44 15 -20 36 -56 47 -81 10 -25 25 -52 32
-61 7 -8 13 -20 13 -25 0 -5 10 -21 23 -34 12 -14 30 -42 41 -62 10 -20 25
-39 32 -42 8 -3 14 -12 14 -19 0 -8 20 -45 45 -83 25 -37 45 -73 45 -79 0 -6
11 -22 25 -35 14 -13 25 -31 25 -41 0 -9 6 -22 14 -28 8 -7 17 -23 20 -36 4
-14 11 -25 16 -25 6 0 10 -8 10 -19 0 -10 7 -24 15 -31 8 -7 15 -19 15 -27 0
-7 9 -27 20 -43 11 -17 29 -43 40 -60 11 -16 20 -36 20 -43 0 -8 7 -20 15 -27
8 -7 15 -19 15 -27 0 -8 6 -27 14 -41 7 -15 27 -56 43 -92 17 -36 49 -103 72
-150 22 -47 41 -91 41 -97 0 -6 7 -16 15 -23 8 -7 15 -19 15 -26 0 -14 52
-134 71 -164 5 -8 14 -26 19 -39 8 -18 13 -21 24 -12 16 13 165 166 322 331
60 63 157 164 215 225 58 60 199 209 314 330 115 121 290 305 390 410 99 104
216 228 260 274 44 47 121 128 170 181 50 52 95 100 100 106 6 6 73 78 150
160 77 81 176 187 220 234 152 161 230 245 305 325 41 43 122 129 180 190 145
152 423 446 435 460 6 6 44 47 85 91 41 44 104 111 141 149 36 39 94 102 129
140 54 59 250 271 300 325 253 270 305 349 280 425 -17 50 -74 118 -139 164
-88 61 -128 96 -336 295 -104 100 -224 214 -265 252 -41 39 -158 149 -260 245
-102 96 -253 237 -335 314 -82 77 -190 179 -240 226 -49 47 -130 123 -180 170
-49 46 -132 125 -185 175 -52 50 -216 205 -365 344 -148 139 -306 287 -351
329 -44 42 -140 132 -214 201 -74 69 -173 161 -220 206 -47 44 -269 253 -495
464 -225 211 -444 416 -485 455 -118 113 -414 391 -660 619 -124 116 -263 246
-310 290 -47 45 -128 122 -181 171 -52 50 -124 117 -159 150 -74 68 -332 310
-460 430 -109 104 -230 216 -410 385 -80 74 -174 162 -209 195 -36 33 -72 67
-81 75 -9 8 -83 78 -166 156 -82 77 -225 212 -319 299 -93 87 -204 191 -245
230 -140 133 -473 446 -660 621 -321 299 -384 358 -460 429 -47 44 -153 143
-235 220 -83 77 -190 178 -240 225 -210 200 -268 254 -425 400 -181 169 -248
231 -457 427 -170 161 -216 203 -223 202 -3 0 -13 -4 -22 -9z"/>
<path d="M20205 25458 c-43 -46 -115 -121 -159 -168 -45 -47 -121 -128 -170
-180 -49 -52 -135 -142 -190 -200 -56 -58 -193 -202 -306 -320 -112 -118 -248
-260 -300 -315 -53 -55 -127 -136 -165 -180 -69 -80 -115 -129 -295 -319 -200
-211 -256 -270 -275 -291 -20 -21 -111 -118 -264 -280 -42 -44 -110 -116 -151
-160 -41 -44 -156 -166 -255 -270 -169 -178 -271 -287 -369 -395 -160 -176
-269 -294 -321 -349 -33 -35 -65 -69 -70 -75 -30 -32 -382 -405 -535 -566 -96
-101 -211 -223 -255 -270 -114 -120 -169 -179 -475 -510 -79 -85 -209 -225
-290 -310 -145 -155 -485 -515 -505 -536 -60 -64 -297 -316 -356 -379 -252
-267 -268 -285 -275 -312 -9 -33 3 -58 54 -110 58 -60 645 -636 888 -873 378
-368 854 -831 994 -965 79 -77 223 -216 320 -310 96 -93 238 -231 315 -305
242 -234 435 -421 595 -575 85 -83 222 -215 305 -295 82 -80 206 -200 275
-266 231 -222 424 -409 588 -570 90 -87 167 -161 172 -164 5 -3 75 -70 157
-150 81 -79 209 -202 283 -274 74 -71 194 -187 265 -256 72 -69 193 -186 270
-260 77 -74 248 -238 380 -365 132 -126 308 -295 390 -375 171 -166 302 -291
635 -610 348 -334 451 -433 595 -572 154 -149 207 -197 218 -198 18 0 -9 885
-32 1030 -6 36 -13 153 -16 260 -3 107 -9 215 -15 240 -5 25 -10 160 -10 300
-1 171 -5 266 -13 287 -7 18 -38 59 -69 92 -32 32 -58 66 -58 73 0 8 -12 25
-26 39 -14 13 -35 39 -46 59 -12 19 -34 50 -50 68 -15 18 -28 39 -28 46 0 7
-10 22 -23 34 -27 26 -80 128 -100 197 -16 52 -47 227 -67 375 -12 89 -36 148
-68 167 -41 25 -113 35 -292 44 -159 7 -286 22 -365 43 -11 2 -60 14 -108 26
-162 39 -287 108 -396 218 -96 98 -154 170 -199 252 -11 19 -29 44 -41 54 -12
11 -21 27 -21 37 0 10 -5 21 -10 24 -6 4 -19 23 -30 43 -12 20 -32 57 -45 81
-14 24 -25 50 -25 56 0 7 -7 18 -15 25 -8 7 -15 22 -15 34 0 12 -7 31 -15 42
-8 10 -15 26 -15 35 0 9 -7 22 -15 29 -8 7 -15 27 -15 45 0 18 -7 38 -15 45
-8 7 -15 25 -15 39 0 15 -7 36 -15 47 -8 10 -15 29 -15 42 0 12 -4 30 -10 40
-9 16 -18 54 -41 167 -6 28 -14 55 -19 60 -4 6 -10 36 -13 68 -3 32 -10 64
-15 70 -5 7 -12 45 -16 85 -3 41 -11 82 -16 92 -6 10 -10 44 -10 75 0 30 -7
72 -15 92 -9 20 -15 66 -15 110 0 43 -6 89 -15 110 -10 23 -15 69 -15 134 0
54 -5 110 -10 125 -14 37 -35 525 -33 774 2 305 22 820 33 861 13 48 13 952 0
1016 -9 45 -17 157 -40 566 -5 93 -14 185 -19 205 -5 21 -10 69 -10 107 -1 39
-9 158 -18 265 -12 138 -17 317 -17 610 -1 376 1 418 17 445 9 17 17 44 17 62
0 17 5 35 10 38 6 3 10 13 10 21 0 30 65 145 114 204 52 61 76 104 164 290 81
171 102 218 102 230 0 5 4 18 9 28 15 29 59 152 70 197 4 17 13 40 19 52 7 12
12 33 12 46 0 14 7 41 15 60 8 20 15 49 15 65 0 15 4 32 9 38 5 5 14 38 21 74
6 36 17 101 24 145 8 44 17 87 20 95 3 8 11 47 16 85 6 39 17 113 26 165 8 52
18 143 23 203 4 59 13 113 19 119 7 7 12 45 12 98 0 51 5 91 11 97 6 6 14 45
17 85 2 40 9 79 14 85 6 7 12 43 15 80 2 38 9 77 14 88 5 11 13 47 18 80 12
76 30 154 41 180 5 11 16 47 25 80 9 33 22 74 29 90 22 52 38 99 43 128 3 15
9 27 14 27 5 0 9 5 9 10 0 22 -20 7 -95 -72z"/>
<path d="M25045 20980 c-3 -5 -25 -10 -48 -10 -34 0 -49 -7 -78 -34 -42 -39
-119 -138 -141 -181 -70 -137 -81 -363 -23 -475 48 -93 146 -220 169 -220 4 0
23 -11 44 -24 21 -13 52 -27 70 -30 17 -4 34 -12 37 -17 4 -5 20 -9 36 -9 16
0 46 -7 66 -15 26 -11 75 -15 185 -15 119 0 152 3 164 15 9 8 28 15 44 15 21
0 44 15 88 58 85 82 109 143 119 309 4 65 2 87 -11 105 -9 12 -16 39 -16 59 0
49 -67 178 -131 254 -52 60 -139 124 -171 125 -9 0 -20 5 -23 10 -3 6 -30 10
-58 10 -29 1 -70 7 -92 15 -22 8 -52 15 -67 15 -15 0 -44 11 -64 25 -37 25
-88 33 -99 15z m125 -168 c90 -12 148 -32 259 -86 43 -20 161 -130 161 -148 0
-5 11 -24 24 -41 49 -64 67 -192 40 -276 -21 -63 -88 -137 -132 -147 -15 -3
-37 -10 -48 -16 -13 -6 -73 -8 -155 -5 -144 6 -222 17 -254 34 -11 6 -40 21
-65 33 -25 12 -47 25 -50 29 -3 3 -14 11 -25 17 -24 13 -75 86 -94 134 -22 56
-25 116 -7 170 9 27 16 57 16 67 0 10 7 31 15 47 8 15 15 34 15 41 0 6 34 47
76 89 85 87 59 81 224 58z"/>
<path d="M21070 20684 c-89 -33 -160 -71 -260 -142 -52 -37 -140 -111 -195
-164 -55 -54 -105 -98 -110 -98 -17 0 -35 22 -35 42 0 44 -117 183 -160 189
l-25 4 -7 -265 c-5 -146 -11 -394 -15 -551 -5 -184 -12 -291 -19 -300 -8 -10
-13 -169 -18 -508 -4 -282 -11 -502 -16 -512 -6 -10 -10 -69 -10 -132 0 -90
-3 -117 -15 -127 -9 -7 -15 -29 -15 -55 0 -23 -7 -62 -15 -85 -8 -23 -15 -61
-15 -84 0 -23 -7 -51 -15 -62 -8 -10 -15 -39 -15 -64 0 -25 -7 -56 -15 -70 -8
-14 -14 -42 -15 -63 0 -21 -5 -47 -11 -58 -6 -11 -14 -50 -19 -87 -5 -37 -13
-91 -19 -120 -5 -29 -11 -88 -12 -130 -1 -42 -5 -84 -9 -92 -9 -18 15 -326 29
-380 6 -19 12 -59 15 -89 3 -30 10 -59 16 -65 5 -5 10 -26 10 -46 0 -20 5 -41
10 -46 6 -6 15 -33 19 -60 5 -27 14 -64 20 -81 27 -80 33 -100 40 -128 4 -16
31 -78 59 -136 29 -58 52 -110 52 -116 0 -6 7 -16 15 -23 8 -7 15 -21 15 -31
0 -11 4 -19 9 -19 5 0 14 -13 20 -28 6 -15 23 -41 36 -56 14 -16 25 -34 25
-40 0 -6 30 -42 66 -81 36 -38 69 -77 72 -86 9 -22 93 -111 135 -143 33 -25
38 -26 193 -27 87 0 182 -5 209 -11 28 -5 112 -12 188 -15 113 -4 145 -2 172
11 18 9 38 16 44 16 17 0 46 30 65 68 17 34 15 86 -5 97 -5 4 -9 15 -9 25 0
27 -115 140 -143 140 -12 1 -33 7 -47 15 -14 8 -35 14 -46 15 -26 0 -95 54
-117 90 -8 14 -18 44 -22 67 -4 24 -11 45 -16 49 -15 9 -10 282 6 349 8 33 15
93 15 133 0 40 5 82 11 93 5 11 13 51 16 90 3 38 10 72 14 75 4 2 27 -19 49
-48 23 -29 51 -64 63 -78 42 -49 197 -260 197 -268 0 -5 11 -29 25 -53 13 -24
29 -53 34 -64 15 -30 37 -55 48 -55 6 0 16 -7 23 -15 9 -11 33 -15 91 -15 78
0 79 0 117 38 67 67 82 112 82 241 0 123 -11 170 -64 279 -47 97 -57 114 -83
142 -12 13 -23 32 -23 40 0 9 -9 23 -20 32 -10 9 -32 36 -47 60 -15 24 -31 45
-34 48 -4 3 -17 23 -29 45 -12 22 -30 54 -41 70 -10 17 -21 37 -25 45 -3 8
-10 22 -15 30 -5 8 -12 22 -16 30 -8 20 -66 94 -75 98 -5 2 -8 10 -8 17 0 8
-6 20 -12 27 -7 7 -31 33 -52 58 -22 25 -69 77 -105 115 -36 39 -82 92 -101
118 -19 27 -55 73 -79 103 -24 31 -60 79 -79 107 l-36 52 0 206 c-1 154 2 210
12 221 7 9 15 39 19 67 3 28 10 51 14 51 5 0 9 9 9 21 0 12 6 35 14 52 8 18
17 53 21 80 3 26 10 47 16 47 5 0 9 18 9 40 0 27 5 43 15 46 8 4 15 17 15 31
0 14 7 38 15 54 8 16 22 42 30 58 8 16 15 40 15 53 0 12 7 32 15 42 8 11 15
32 15 48 0 15 5 28 10 28 6 0 10 10 10 23 0 12 7 35 15 51 8 15 15 41 15 56 0
15 7 33 15 40 8 7 15 20 15 30 0 10 7 23 15 30 8 7 15 25 15 40 0 15 7 33 15
40 8 7 15 27 15 45 0 18 7 38 15 45 8 7 15 20 15 30 0 10 7 23 15 30 8 7 15
27 15 46 0 18 4 35 9 38 4 3 11 24 15 46 3 22 11 40 16 40 6 0 10 15 10 33 0
18 7 42 15 53 8 10 15 30 15 44 0 14 7 34 15 44 8 11 15 36 15 57 0 20 7 42
15 49 8 7 15 24 15 38 0 15 6 44 14 67 21 59 35 167 25 187 -5 9 -9 30 -9 46
0 54 -156 232 -203 232 -8 0 -20 7 -27 15 -7 8 -20 15 -29 15 -9 0 -25 7 -35
15 -11 8 -34 15 -51 15 -17 0 -35 4 -41 10 -11 11 -112 22 -134 14z"/>
<path d="M28656 19414 c-9 -8 -16 -20 -16 -25 0 -5 -12 -14 -26 -19 -23 -9
-25 -15 -20 -43 3 -17 9 -61 15 -96 5 -34 14 -68 20 -74 6 -6 11 -30 11 -53 0
-24 5 -55 11 -71 7 -15 15 -48 20 -73 10 -59 29 -128 45 -167 8 -17 14 -42 14
-55 0 -12 7 -32 15 -42 8 -11 15 -26 15 -34 0 -7 6 -19 13 -27 6 -7 23 -28 37
-47 14 -18 40 -48 59 -65 32 -30 41 -33 96 -33 56 0 64 3 91 33 17 17 39 58
49 89 18 55 18 59 2 93 -9 20 -17 49 -17 65 0 17 -4 38 -10 48 -5 9 -16 35
-25 57 -28 67 -88 185 -97 191 -4 3 -8 14 -8 25 0 11 -14 46 -32 77 -17 31
-50 93 -72 137 -55 112 -69 125 -127 125 -30 0 -53 -6 -63 -16z"/>
<path d="M21713 18804 c-18 -14 -33 -30 -33 -35 0 -5 -13 -28 -30 -51 -21 -28
-30 -53 -30 -78 0 -21 -7 -54 -15 -73 -8 -20 -15 -61 -15 -92 0 -30 -5 -75
-12 -100 -11 -42 -4 -124 19 -222 6 -25 50 -57 75 -56 37 3 88 76 88 126 0 18
5 38 11 44 5 5 13 37 16 69 3 32 9 64 14 69 4 6 11 39 15 75 3 36 10 70 15 75
4 6 11 34 15 63 3 28 10 52 15 52 5 0 9 29 9 63 0 78 -16 97 -81 97 -32 0 -53
-7 -76 -26z"/>
<path d="M23395 17100 c-3 -5 -13 -10 -22 -10 -8 0 -32 -13 -53 -30 -21 -16
-40 -30 -44 -30 -5 0 -95 -59 -106 -70 -3 -3 -61 -54 -130 -115 -68 -60 -132
-117 -140 -125 -97 -92 -244 -226 -268 -243 -45 -34 -120 -114 -127 -137 -3
-11 -11 -20 -16 -20 -5 0 -9 -18 -9 -39 0 -22 -4 -42 -9 -45 -8 -6 -31 36 -31
58 0 19 -51 71 -89 89 -56 28 -168 23 -236 -9 -31 -15 -60 -34 -64 -43 -12
-22 2 -168 17 -183 6 -6 12 -33 12 -59 0 -25 7 -66 15 -89 8 -23 15 -69 15
-101 0 -32 7 -84 15 -116 21 -80 21 -496 0 -533 -22 -38 -22 -512 0 -530 11
-9 15 -33 15 -91 0 -44 4 -87 10 -97 5 -9 16 -33 25 -52 27 -60 53 -71 159
-71 72 0 103 5 140 22 27 11 52 17 57 12 4 -4 10 -75 13 -158 9 -279 31 -643
39 -651 4 -4 7 -119 7 -255 0 -210 2 -248 15 -253 13 -4 15 -39 15 -223 1
-176 3 -222 15 -237 12 -16 15 -56 15 -194 0 -115 4 -181 12 -195 7 -14 14
-100 19 -227 3 -113 11 -221 18 -240 6 -19 11 -99 11 -178 0 -85 4 -152 11
-164 6 -11 15 -118 20 -242 5 -121 16 -336 24 -476 9 -140 20 -325 24 -410 9
-165 26 -275 48 -301 7 -8 13 -22 13 -30 0 -17 107 -121 187 -182 59 -46 149
-138 233 -239 24 -29 69 -74 100 -98 30 -25 300 -288 600 -585 794 -788 934
-927 1050 -1055 57 -63 115 -123 127 -133 28 -23 72 -19 87 8 6 11 14 23 19
26 4 3 16 23 28 45 18 36 20 57 19 252 0 143 -5 242 -15 299 -8 47 -15 122
-15 167 0 45 -7 136 -15 201 -8 66 -15 165 -15 220 0 55 -7 181 -15 280 -8 99
-15 260 -15 357 0 97 -5 187 -10 200 -6 13 -14 77 -20 143 -5 66 -16 163 -25
215 -8 52 -19 129 -24 171 -5 42 -14 92 -20 110 -28 89 -36 314 -31 814 3 293
-13 797 -29 885 -6 34 -10 591 -10 1466 -1 1213 1 1416 14 1440 10 21 14 60
12 133 l-1 103 -33 27 c-19 15 -55 38 -81 51 -26 13 -63 39 -84 58 -40 37
-100 72 -123 72 -8 0 -15 4 -15 9 0 5 -13 12 -30 16 -16 4 -32 11 -35 16 -4 5
-15 9 -27 9 -11 0 -32 6 -46 14 -15 8 -34 17 -42 20 -8 4 -28 15 -45 26 -16
11 -37 22 -45 26 -8 3 -24 10 -35 16 -11 6 -42 22 -68 35 -87 44 -30 67 97 39
39 -8 96 -18 126 -21 247 -24 298 -34 362 -70 47 -27 99 -19 146 21 23 19 42
41 42 49 0 7 7 26 15 41 9 17 15 56 15 95 0 54 -4 71 -23 92 -12 15 -29 27
-37 27 -8 0 -35 18 -60 40 -25 22 -48 40 -53 40 -4 0 -26 14 -49 30 -22 17
-45 30 -51 30 -5 0 -29 14 -54 30 -24 17 -46 30 -48 30 -10 0 -152 100 -169
119 -11 11 -24 21 -31 21 -6 0 -24 13 -41 28 -16 16 -56 48 -88 73 -33 24 -78
61 -100 83 -23 21 -48 41 -57 45 -9 3 -54 41 -100 83 -159 145 -307 269 -429
358 -26 19 -75 56 -109 83 -34 26 -68 47 -76 47 -7 0 -17 5 -20 10 -19 31
-155 55 -170 30z m-887 -1441 c2 -415 0 -534 -10 -552 -7 -12 -15 -71 -18
-132 l-5 -110 -28 -3 -28 -3 6 123 c3 68 8 226 11 352 4 178 8 233 19 250 12
17 15 71 15 301 0 288 4 335 24 315 8 -8 12 -168 14 -541z m1789 45 c-3 -3
-12 -4 -19 -1 -8 3 -5 6 6 6 11 1 17 -2 13 -5z"/>
<path d="M30860 14404 c-6 -14 -10 -30 -10 -36 0 -24 -51 -220 -74 -284 -49
-134 -118 -237 -246 -364 -207 -207 -631 -489 -735 -490 -11 0 -31 -9 -45 -20
-24 -18 -25 -21 -22 -137 2 -136 27 -519 42 -643 5 -47 12 -130 16 -185 3 -55
7 -118 10 -140 2 -22 9 -130 14 -240 18 -385 23 -456 34 -471 10 -13 23 -3 82
58 133 138 948 993 1008 1058 230 245 341 393 431 575 31 62 35 78 35 150 0
97 -14 144 -75 260 -80 152 -149 290 -163 326 -15 39 -27 66 -72 164 -18 39
-38 84 -45 100 -34 80 -48 109 -101 223 -32 67 -62 122 -66 122 -5 0 -13 -12
-18 -26z"/>
<path d="M26381 24000 c-23 -17 -50 -39 -60 -49 -10 -10 -22 -20 -27 -22 -5
-2 -24 -25 -41 -51 -27 -37 -33 -56 -33 -96 0 -46 4 -55 47 -101 26 -28 55
-51 64 -51 9 0 22 -7 29 -15 7 -8 23 -15 36 -15 12 0 26 -4 29 -10 9 -15 98
-12 132 5 34 17 83 75 83 99 0 8 5 18 10 21 6 3 19 27 30 53 12 26 25 54 30
63 5 9 12 33 15 53 6 30 2 44 -19 76 -14 22 -32 40 -40 40 -7 0 -19 7 -26 15
-10 12 -36 15 -115 15 -98 0 -104 -1 -144 -30z m89 -300 c0 -5 -4 -10 -10 -10
-5 0 -10 5 -10 10 0 6 5 10 10 10 6 0 10 -4 10 -10z"/>
<path d="M23560 23926 c-22 -13 -111 -54 -150 -71 -48 -19 -92 -54 -115 -90
-15 -24 -19 -49 -19 -131 -1 -92 2 -106 28 -160 43 -86 89 -124 152 -124 36 0
140 26 159 40 6 4 22 10 38 14 15 3 27 11 27 16 0 6 8 10 18 11 34 1 106 64
115 100 5 19 13 51 19 71 9 30 8 44 -6 71 -9 19 -16 42 -16 51 0 9 -4 24 -9
34 -6 9 -13 34 -16 54 -4 24 -17 47 -37 65 -17 15 -38 36 -46 46 -20 21 -105
23 -142 3z"/>
<path d="M24644 22910 c-17 -6 -23 -20 -28 -57 -7 -52 5 -170 22 -218 6 -16
18 -57 28 -90 9 -33 20 -69 25 -80 4 -11 11 -31 15 -45 3 -14 17 -47 29 -75
12 -27 25 -57 29 -65 3 -8 10 -23 16 -32 5 -10 15 -26 20 -35 6 -10 14 -27 19
-39 15 -33 85 -103 127 -126 30 -17 56 -21 116 -21 66 0 85 5 141 33 84 42
146 96 212 186 30 41 55 76 55 80 0 3 11 20 25 38 14 18 25 39 25 47 0 8 7 28
16 44 9 17 19 64 22 108 4 72 3 80 -23 118 -38 54 -131 119 -172 119 -10 0
-27 7 -37 15 -11 8 -37 15 -57 15 -21 0 -48 4 -61 10 -13 5 -59 14 -103 19
-124 15 -217 30 -255 41 -52 14 -182 21 -206 10z m241 -151 c5 -5 23 -9 40 -9
16 -1 41 -7 55 -15 14 -8 45 -15 70 -15 25 0 70 -7 100 -15 30 -8 71 -15 90
-15 43 0 107 -41 115 -73 4 -12 -1 -36 -9 -52 -9 -17 -16 -40 -16 -52 0 -12
-4 -25 -10 -28 -5 -3 -10 -14 -10 -24 0 -10 -7 -24 -15 -31 -8 -7 -15 -19 -15
-26 0 -18 -86 -131 -128 -168 -37 -33 -118 -86 -131 -86 -4 0 -15 8 -24 18
-19 21 -97 172 -97 188 0 7 -6 25 -14 41 -20 40 -33 72 -51 123 -58 165 -70
234 -45 251 17 10 80 3 95 -12z"/>
<path d="M23368 20431 c-111 -15 -217 -175 -163 -247 8 -10 15 -27 15 -37 0
-19 39 -86 61 -104 8 -6 36 -23 63 -37 43 -23 61 -26 141 -26 70 0 96 4 105
15 7 8 20 15 30 15 10 0 20 8 24 18 3 9 17 37 31 61 14 24 25 49 25 55 0 6 7
24 15 39 22 43 35 96 24 103 -5 3 -9 15 -9 28 0 26 -42 69 -94 95 -41 21 -188
33 -268 22z"/>
<path d="M26605 20352 c-16 -8 -43 -22 -60 -30 -40 -20 -61 -43 -79 -87 -18
-42 -21 -101 -6 -110 6 -3 10 -14 10 -24 0 -34 55 -95 111 -123 47 -25 66 -28
146 -28 182 0 264 81 232 227 -7 30 -16 56 -21 59 -4 3 -8 19 -8 36 0 22 -10
40 -36 64 l-35 34 -112 -1 c-81 -1 -120 -5 -142 -17z"/>
<path d="M17705 31560 c-388 -388 -409 -411 -392 -427 16 -16 19 -15 54 19 44
42 79 58 131 58 97 0 170 -48 196 -129 20 -61 239 -1062 234 -1067 -4 -3 -255
49 -820 170 -142 31 -271 62 -287 71 -55 28 -101 111 -101 179 1 41 31 105 64
135 30 28 33 49 10 58 -12 4 -170 -148 -580 -558 -310 -310 -564 -569 -564
-575 0 -6 6 -16 13 -23 10 -8 23 -1 53 30 55 56 116 93 209 125 72 25 94 28
210 28 l130 0 790 -173 c434 -94 790 -173 791 -174 10 -16 279 -1626 282
-1692 7 -169 -36 -297 -139 -411 -56 -61 -60 -68 -45 -83 15 -14 50 18 431
399 319 319 412 417 403 427 -16 20 -27 16 -69 -21 -78 -72 -195 -70 -268 3
-21 21 -41 51 -46 67 -23 88 -240 1239 -234 1242 6 3 1117 -237 1201 -259 80
-21 138 -100 138 -189 0 -57 -8 -77 -56 -136 -30 -37 -32 -43 -18 -55 13 -11
94 66 586 559 488 487 570 573 559 586 -11 13 -21 8 -79 -41 -119 -101 -262
-149 -422 -140 -59 3 -344 59 -935 186 -467 99 -859 185 -870 189 -17 8 -37
96 -157 708 -152 767 -163 849 -134 984 21 98 65 186 128 255 42 46 48 58 38
70 -7 8 -15 15 -19 15 -3 0 -190 -184 -416 -410z"/>
<path d="M32542 31337 c-9 -10 -1 -23 33 -57 63 -61 89 -127 89 -220 -1 -53
-6 -88 -21 -120 -24 -54 7 -21 -1046 -1128 -951 -998 -900 -952 -1037 -952
-89 0 -149 22 -211 77 -47 43 -51 45 -67 29 -19 -18 -42 8 203 -227 77 -74
461 -439 853 -812 l712 -678 408 272 c224 150 409 274 411 276 3 2 -2 10 -11
19 -14 14 -23 12 -94 -24 -367 -184 -722 -172 -1010 33 -61 44 -559 512 -559
525 0 4 437 467 972 1028 1100 1155 1017 1078 1166 1070 91 -5 126 -19 198
-79 35 -28 49 -35 58 -26 6 6 11 14 11 18 0 10 -1029 989 -1039 989 -5 0 -13
-6 -19 -13z"/>
<path d="M34674 29306 c-4 -11 10 -34 41 -67 67 -71 90 -127 90 -219 0 -57 -5
-85 -22 -116 -12 -22 -358 -393 -769 -825 -1110 -1165 -1139 -1195 -1187
-1218 -64 -31 -133 -41 -197 -29 -68 12 -101 29 -155 79 -40 37 -43 38 -58 21
-17 -18 -70 34 831 -824 149 -142 200 -184 209 -176 21 17 15 30 -32 78 -63
61 -88 133 -83 226 4 56 11 83 34 122 30 52 1945 2072 1964 2072 21 0 306
-290 340 -346 103 -171 108 -369 14 -558 -49 -97 -87 -149 -179 -245 -169
-176 -321 -252 -532 -267 -184 -13 -372 56 -523 192 -35 32 -38 33 -53 16 -15
-16 -15 -23 4 -87 57 -189 189 -385 343 -509 135 -108 375 -194 566 -203 314
-15 639 160 838 453 51 75 104 188 127 269 9 34 19 115 22 185 4 112 2 136
-21 225 -46 177 -151 360 -311 541 -75 85 -1263 1218 -1281 1222 -8 2 -17 -4
-20 -12z"/>
<path d="M15441 29035 c-84 -20 -209 -71 -299 -124 -177 -103 -264 -182 -889
-805 -337 -335 -613 -615 -613 -622 0 -30 34 -23 77 17 64 58 135 89 208 89
127 0 46 72 1118 -998 538 -537 989 -995 1002 -1017 33 -57 47 -141 34 -212
-13 -71 -18 -80 -74 -143 -49 -55 -52 -62 -32 -78 10 -9 130 106 526 502 440
440 510 514 497 525 -13 11 -23 6 -63 -27 -26 -22 -63 -47 -81 -57 -81 -40
-209 -36 -287 10 -22 13 -487 471 -1034 1019 l-995 995 146 141 c174 167 176
169 257 210 127 65 290 72 437 20 136 -47 308 -185 431 -345 209 -274 195
-651 -34 -905 -57 -62 -61 -71 -39 -89 29 -24 246 57 382 144 82 52 192 153
241 218 77 105 154 287 184 432 19 96 15 256 -10 359 -26 107 -93 253 -157
343 -95 133 -277 286 -409 343 -109 48 -175 61 -320 65 -99 3 -159 0 -204 -10z"/>
<path d="M13025 26880 c-328 -328 -349 -351 -333 -367 16 -15 20 -14 63 26 67
62 145 95 205 88 27 -3 66 -15 87 -26 22 -11 340 -323 764 -748 623 -624 735
-741 787 -820 141 -213 189 -377 179 -603 -6 -127 -27 -211 -82 -320 -74 -146
-220 -309 -365 -405 -146 -97 -274 -136 -450 -137 -208 -1 -366 51 -581 193
-81 54 -191 159 -818 783 -496 495 -729 734 -742 761 -42 90 -16 201 67 286
43 43 44 46 26 62 -17 15 -43 -9 -502 -468 -454 -454 -483 -485 -465 -499 18
-13 24 -10 74 35 87 78 182 98 271 58 34 -15 214 -189 770 -743 602 -599 740
-733 815 -783 207 -139 358 -191 585 -200 259 -10 477 51 735 205 287 172 621
503 763 757 199 356 218 751 53 1090 -98 200 -120 224 -898 1005 -501 503
-727 736 -738 762 -36 89 -9 197 71 279 43 43 44 46 26 62 -17 15 -36 -2 -367
-333z"/>
<path d="M36922 27168 c-9 -9 -1 -23 34 -60 77 -82 106 -178 84 -281 -6 -31
-23 -74 -38 -95 -24 -36 -329 -358 -1496 -1582 -191 -201 -366 -379 -388 -397
-58 -47 -126 -66 -212 -61 -79 5 -119 22 -186 79 -33 28 -47 35 -57 27 -7 -6
-13 -14 -13 -18 0 -7 912 -880 996 -954 36 -31 47 -36 59 -26 13 11 9 19 -29
61 -51 57 -73 99 -86 168 -11 60 0 132 30 190 17 35 548 598 1594 1690 351
366 361 374 486 373 80 0 143 -25 211 -82 35 -29 49 -36 58 -27 6 6 11 14 11
18 0 9 -1030 989 -1039 989 -4 0 -12 -5 -19 -12z"/>
<path d="M38460 25703 c-81 -118 -186 -246 -306 -373 -472 -498 -1540 -1619
-1638 -1718 -66 -68 -138 -133 -159 -144 -22 -10 -69 -22 -107 -25 -59 -5 -75
-2 -126 21 -33 15 -80 48 -107 74 -44 44 -48 45 -64 29 -17 -16 -16 -19 12
-46 17 -17 250 -239 520 -495 421 -400 492 -463 504 -451 12 12 7 22 -39 72
-29 32 -62 78 -73 103 -29 63 -29 169 -1 231 19 40 413 461 1288 1376 33 35
62 60 65 57 3 -3 42 -746 87 -1650 67 -1385 82 -1647 95 -1660 14 -13 21 -7
64 58 128 194 108 172 1182 1300 967 1015 908 961 1048 962 86 1 138 -21 213
-89 50 -45 54 -47 70 -32 14 15 14 19 2 30 -20 18 -856 813 -951 904 -72 70
-76 72 -92 55 -16 -17 -13 -21 38 -72 73 -72 99 -137 93 -235 -3 -45 -13 -85
-26 -112 -13 -25 -287 -321 -680 -734 l-657 -691 -7 38 c-4 22 -41 764 -83
1649 -42 886 -80 1616 -84 1624 -15 30 -29 20 -81 -56z"/>
</g>
</svg>
